<svg id="svg" version="1.1" xmlns="http://www.w3.org/2000/svg" xmlns:xlink="http://www.w3.org/1999/xlink" width="400" height="400" viewBox="0, 0, 400,400"><g id="svgg"><path id="path0" d="M0.000 200.000 L 0.000 400.000 200.000 400.000 L 400.000 400.000 400.000 200.000 L 400.000 0.000 200.000 0.000 L 0.000 0.000 0.000 200.000 M274.400 93.859 C 284.676 96.748,290.806 101.099,296.700 109.687 C 298.016 111.604,299.205 113.062,299.341 112.926 C 299.477 112.789,299.972 113.165,300.440 113.761 C 301.120 114.624,301.513 114.795,302.385 114.603 C 303.304 114.401,303.652 114.593,304.580 115.809 C 305.251 116.690,305.905 117.168,306.254 117.035 C 306.845 116.808,310.376 120.060,311.190 121.581 C 311.431 122.031,311.923 122.400,312.283 122.400 C 313.147 122.400,314.399 123.559,314.404 124.362 C 314.405 124.713,315.747 126.395,317.385 128.099 C 319.576 130.379,320.436 131.583,320.636 132.651 C 320.811 133.585,321.175 134.173,321.654 134.298 C 322.064 134.406,322.400 134.711,322.400 134.977 C 322.400 135.243,322.869 135.897,323.442 136.430 C 324.016 136.964,324.645 137.760,324.841 138.200 C 325.038 138.640,325.375 139.270,325.590 139.600 C 325.806 139.930,326.174 140.967,326.408 141.905 C 326.642 142.843,327.366 144.217,328.017 144.958 C 328.668 145.699,329.200 146.666,329.200 147.106 C 329.200 147.570,329.536 147.995,330.000 148.116 C 330.839 148.335,331.112 149.760,330.400 150.200 C 329.869 150.528,329.888 151.200,330.429 151.200 C 331.269 151.200,332.184 152.439,331.607 152.796 C 330.858 153.259,331.422 154.400,332.400 154.400 C 333.363 154.400,333.947 155.538,333.216 155.990 C 332.846 156.219,332.835 156.375,333.174 156.584 C 333.426 156.740,333.529 157.193,333.403 157.592 C 333.276 157.990,333.449 158.592,333.786 158.929 C 334.214 159.356,334.400 160.343,334.400 162.177 C 334.400 163.626,334.580 165.168,334.800 165.605 C 335.020 166.042,335.380 166.758,335.600 167.195 C 336.136 168.259,336.106 169.734,335.537 170.303 C 335.186 170.654,335.209 170.929,335.630 171.437 C 335.949 171.821,336.300 173.559,336.451 175.504 C 336.618 177.649,336.915 179.041,337.258 179.281 C 337.679 179.576,337.689 179.706,337.300 179.864 C 336.434 180.215,336.675 182.400,337.580 182.400 C 338.310 182.400,338.374 182.793,338.575 188.500 C 338.873 196.933,338.891 198.757,338.691 200.600 C 338.592 201.517,338.706 202.322,338.959 202.486 C 339.475 202.820,339.670 219.692,339.186 222.101 C 339.020 222.926,339.040 224.276,339.230 225.101 C 339.419 225.925,339.588 229.120,339.605 232.200 C 339.653 240.911,339.990 244.800,340.694 244.800 C 341.070 244.800,341.197 245.032,341.042 245.435 C 340.908 245.784,340.684 246.819,340.545 247.735 C 340.405 248.651,340.109 249.631,339.886 249.913 C 339.407 250.519,339.768 257.498,340.388 259.597 C 340.915 261.384,340.923 265.477,340.400 265.800 C 339.507 266.352,339.946 268.400,340.957 268.400 C 342.318 268.400,342.401 268.876,342.387 276.533 C 342.375 283.405,342.116 284.800,340.856 284.800 C 340.605 284.800,340.400 284.980,340.400 285.200 C 340.400 285.420,340.670 285.600,341.000 285.600 C 341.330 285.600,341.600 285.780,341.600 286.000 C 341.600 286.220,341.420 286.400,341.200 286.400 C 340.627 286.400,340.704 288.701,341.283 288.894 C 341.603 289.001,341.468 289.375,340.883 290.003 C 339.924 291.033,339.721 292.761,340.471 293.511 C 340.831 293.871,340.796 294.147,340.321 294.691 C 339.980 295.081,339.584 296.054,339.441 296.854 C 339.259 297.872,338.982 298.292,338.518 298.254 C 338.153 298.224,337.637 298.650,337.371 299.200 C 337.105 299.750,336.500 301.010,336.027 302.000 C 334.832 304.500,334.523 304.981,331.786 308.604 C 330.459 310.362,329.058 312.297,328.674 312.905 C 327.755 314.358,322.904 319.200,322.367 319.200 C 322.137 319.200,321.494 319.740,320.939 320.400 C 320.260 321.206,319.562 321.600,318.811 321.600 C 318.030 321.600,317.630 321.841,317.484 322.400 C 317.338 322.958,316.930 323.205,316.137 323.216 C 315.474 323.226,314.423 323.725,313.615 324.416 C 312.815 325.100,311.770 325.600,311.139 325.600 C 310.538 325.600,309.936 325.780,309.800 326.000 C 309.664 326.220,309.293 326.400,308.976 326.400 C 308.659 326.400,308.040 326.760,307.600 327.200 C 306.756 328.044,305.600 328.275,305.600 327.600 C 305.600 326.825,303.696 327.202,303.104 328.095 C 302.623 328.819,302.399 328.897,301.927 328.505 C 301.465 328.122,300.915 328.185,299.268 328.811 C 297.935 329.318,296.210 329.600,294.450 329.600 C 292.282 329.600,291.487 329.773,290.654 330.429 C 290.074 330.885,289.600 331.065,289.600 330.829 C 289.600 330.593,289.060 330.400,288.400 330.400 C 287.740 330.400,287.200 330.580,287.200 330.800 C 287.200 331.667,280.915 331.281,280.684 330.400 C 280.408 329.346,278.797 329.325,278.523 330.372 C 278.293 331.251,277.347 331.738,276.675 331.323 C 276.061 330.943,273.904 331.136,273.427 331.613 C 272.850 332.190,260.906 332.118,260.712 331.537 C 260.627 331.282,260.021 331.089,259.364 331.108 C 258.383 331.136,258.076 330.914,257.650 329.871 C 257.364 329.172,256.453 327.160,255.625 325.400 C 254.797 323.640,253.598 320.806,252.960 319.103 C 250.460 312.430,247.416 314.201,243.300 324.722 C 241.794 328.571,241.560 328.906,241.000 328.000 C 240.864 327.780,239.131 327.600,237.149 327.600 L 233.546 327.600 237.372 323.300 C 243.501 316.410,243.020 315.200,234.148 315.200 C 228.735 315.200,227.600 315.509,227.600 316.981 C 227.600 319.052,227.855 319.200,231.443 319.200 C 235.776 319.200,235.942 318.654,229.521 325.501 C 227.167 328.011,226.799 328.604,226.794 329.901 C 226.789 331.026,226.689 331.250,226.394 330.800 C 226.125 330.391,225.904 330.339,225.700 330.635 C 225.329 331.174,223.600 331.643,223.600 331.206 C 223.600 331.030,224.029 330.779,224.553 330.648 C 226.109 330.257,226.800 327.385,226.800 321.305 C 226.800 315.635,226.638 315.200,224.528 315.200 C 222.920 315.200,222.861 315.404,222.711 321.459 C 222.577 326.830,222.096 327.716,219.421 327.519 C 217.045 327.345,216.401 325.855,216.401 320.533 C 216.400 315.564,216.280 315.200,214.637 315.200 C 212.526 315.200,212.400 315.591,212.400 322.142 C 212.400 328.249,213.122 330.800,214.849 330.800 C 215.527 330.800,216.452 331.921,216.003 332.198 C 215.781 332.335,215.600 332.276,215.600 332.067 C 215.600 331.858,215.150 331.574,214.600 331.436 C 214.050 331.298,213.600 331.007,213.600 330.789 C 213.600 330.560,213.272 330.598,212.818 330.881 C 211.468 331.725,210.834 328.463,210.812 320.549 C 210.798 315.381,210.629 315.092,207.731 315.277 C 205.596 315.413,204.881 316.351,202.891 321.626 C 202.219 323.407,202.018 323.655,201.779 323.000 C 199.226 315.983,198.663 315.200,196.173 315.200 C 193.994 315.200,193.665 315.674,193.520 319.017 L 193.400 321.800 192.656 320.302 C 189.526 314.006,179.647 314.613,178.202 321.190 L 177.936 322.400 174.201 322.400 C 169.713 322.400,169.200 322.560,169.200 323.963 C 169.200 325.546,169.901 325.999,172.380 326.013 L 174.600 326.025 173.427 327.056 C 171.784 328.500,168.343 328.279,166.932 326.639 C 163.716 322.900,169.152 316.899,172.781 320.183 C 173.708 321.021,174.107 320.963,175.166 319.836 C 176.426 318.495,176.101 317.555,174.000 316.471 C 168.523 313.644,162.022 318.000,161.944 324.549 L 161.919 326.650 160.668 326.466 C 159.981 326.365,158.694 325.891,157.809 325.412 C 156.924 324.933,155.390 324.496,154.400 324.441 C 153.410 324.385,152.230 324.102,151.777 323.811 C 151.224 323.456,150.733 323.405,150.282 323.658 C 149.460 324.118,148.463 323.629,145.999 321.556 C 145.009 320.724,143.554 319.773,142.767 319.444 C 141.980 319.115,141.104 318.566,140.819 318.223 C 140.535 317.880,139.902 317.600,139.413 317.600 C 138.924 317.600,138.198 317.240,137.800 316.800 C 137.402 316.360,136.846 316.000,136.565 316.000 C 136.284 316.000,135.948 315.666,135.818 315.257 C 135.688 314.848,134.842 314.179,133.936 313.771 C 131.659 312.744,130.400 311.680,130.400 310.781 C 130.400 310.359,129.910 309.761,129.300 309.437 C 128.135 308.820,125.745 306.181,123.874 303.448 C 123.255 302.543,122.490 301.658,122.174 301.482 C 121.858 301.305,121.600 300.831,121.600 300.429 C 121.600 300.027,121.360 299.499,121.066 299.255 C 120.522 298.803,120.434 297.432,120.919 296.948 C 121.280 296.586,119.975 295.629,119.100 295.613 C 118.715 295.606,118.400 295.420,118.400 295.200 C 118.400 294.980,118.195 294.800,117.945 294.800 C 117.184 294.800,111.825 290.503,109.308 287.874 C 103.897 282.223,100.960 275.981,99.639 267.323 C 98.901 262.484,99.035 126.318,99.782 122.200 C 102.525 107.080,112.593 96.834,128.047 93.436 C 132.914 92.366,270.505 92.763,274.400 93.859 M256.800 111.094 C 252.141 111.648,244.970 116.923,242.649 121.504 C 239.344 128.025,239.700 134.585,243.934 145.209 C 247.920 155.210,248.762 161.462,247.205 169.483 C 246.172 174.802,246.900 176.223,249.857 174.662 C 251.240 173.932,258.000 167.130,258.000 166.469 C 258.000 166.211,258.225 165.996,258.500 165.992 C 259.027 165.983,261.663 163.396,263.131 161.446 C 263.609 160.811,264.000 160.398,264.000 160.526 C 264.000 160.835,268.348 156.447,269.500 154.976 C 269.995 154.344,270.400 153.469,270.400 153.033 C 270.400 152.448,270.517 152.357,270.848 152.688 C 271.178 153.018,271.669 152.646,272.721 151.268 C 273.504 150.241,274.383 149.162,274.673 148.871 C 274.963 148.581,275.200 148.204,275.200 148.034 C 275.200 147.864,275.648 147.203,276.196 146.566 C 278.929 143.384,281.192 136.879,281.191 132.200 C 281.189 118.838,270.375 109.481,256.800 111.094 M266.600 114.044 C 268.618 114.926,272.456 117.637,273.763 119.103 C 275.918 121.522,278.048 125.890,276.000 123.692 C 275.560 123.220,275.200 122.657,275.200 122.440 C 275.200 121.999,271.756 118.400,271.334 118.400 C 271.185 118.400,270.765 118.130,270.401 117.801 C 269.577 117.055,265.953 116.341,265.385 116.813 C 264.570 117.489,262.378 117.630,261.562 117.058 C 260.983 116.653,259.866 116.543,257.504 116.660 C 254.376 116.814,253.238 117.109,254.300 117.488 C 255.005 117.740,254.923 118.400,254.187 118.400 C 253.851 118.400,253.478 118.654,253.359 118.964 C 253.193 119.394,252.847 119.443,251.892 119.169 C 250.593 118.796,250.019 119.165,250.006 120.380 C 250.001 120.831,250.107 120.853,250.480 120.480 C 250.744 120.216,251.329 120.011,251.780 120.025 C 252.558 120.049,252.554 120.069,251.707 120.410 C 251.089 120.659,250.893 120.976,251.071 121.441 C 251.293 122.021,251.132 122.076,249.900 121.845 C 248.358 121.556,246.792 122.981,246.806 124.662 C 246.811 125.228,246.892 125.274,247.156 124.857 C 247.406 124.463,247.578 124.440,247.784 124.775 C 247.941 125.028,247.853 125.495,247.590 125.812 C 247.326 126.130,247.215 126.662,247.343 126.995 C 247.479 127.350,247.353 127.600,247.036 127.600 C 245.913 127.600,245.679 128.545,246.254 130.761 C 246.563 131.950,246.736 133.210,246.639 133.561 C 246.543 133.913,246.347 134.605,246.205 135.100 C 246.020 135.742,246.114 136.000,246.534 136.000 C 247.450 136.000,248.183 138.477,247.429 139.028 C 246.805 139.484,247.815 142.229,249.084 143.529 C 249.368 143.819,249.600 144.494,249.600 145.029 C 249.600 145.676,249.833 146.010,250.300 146.029 C 251.584 146.082,253.303 148.619,252.998 150.009 L 252.729 151.232 251.065 149.341 C 250.149 148.301,249.400 147.263,249.400 147.034 C 249.400 146.805,248.744 146.025,247.943 145.301 C 244.789 142.451,242.418 134.924,242.998 129.600 C 243.820 122.059,249.442 115.408,256.567 113.550 C 258.338 113.088,265.184 113.425,266.600 114.044 M126.000 116.121 C 124.650 116.536,121.200 119.646,121.200 120.448 C 121.200 121.043,122.171 120.355,123.386 118.900 C 123.983 118.185,124.635 117.600,124.836 117.600 C 125.615 117.600,125.137 118.684,123.800 119.944 C 122.444 121.223,121.970 122.400,122.810 122.400 C 123.035 122.400,123.382 121.973,123.581 121.451 C 124.496 119.043,126.143 118.701,136.500 118.767 C 142.351 118.805,142.646 119.027,139.900 121.327 C 137.531 123.311,134.126 126.501,129.138 131.407 C 124.835 135.640,123.646 136.298,122.832 134.900 C 122.606 134.512,122.419 134.423,122.412 134.700 C 122.405 134.975,122.168 135.200,121.885 135.200 C 121.553 135.200,121.354 135.803,121.326 136.900 C 121.301 137.835,121.368 138.375,121.474 138.100 C 121.919 136.945,122.905 137.574,122.650 138.850 C 122.513 139.537,122.400 140.258,122.400 140.450 C 122.400 140.643,122.130 140.800,121.800 140.800 C 121.470 140.800,121.200 141.105,121.200 141.478 C 121.200 142.177,122.254 141.338,125.618 137.962 C 126.406 137.171,127.337 136.361,127.686 136.162 C 128.036 135.963,132.226 131.975,136.997 127.300 C 141.768 122.625,145.858 118.800,146.085 118.800 C 146.315 118.800,146.255 118.501,145.949 118.123 C 145.583 117.672,145.565 117.546,145.897 117.745 C 146.193 117.923,146.805 117.632,147.415 117.022 L 148.436 116.000 146.318 115.980 C 145.153 115.969,140.420 115.899,135.800 115.825 C 130.543 115.741,126.876 115.851,126.000 116.121 M139.500 117.876 C 139.115 117.976,138.485 117.976,138.100 117.876 C 137.715 117.775,138.030 117.693,138.800 117.693 C 139.570 117.693,139.885 117.775,139.500 117.876 M264.469 121.745 C 266.917 122.939,269.120 125.093,268.400 125.588 C 266.650 126.790,264.940 126.837,262.761 125.743 C 257.350 123.025,251.253 128.860,253.255 134.840 C 254.889 139.721,259.801 141.552,263.828 138.781 C 264.803 138.110,265.627 137.390,265.660 137.181 C 265.867 135.869,265.724 135.795,262.600 135.600 L 259.400 135.400 259.400 133.400 L 259.400 131.400 265.000 131.544 C 271.619 131.714,271.200 131.546,271.200 134.028 C 271.200 145.943,253.130 148.081,248.861 136.671 C 245.192 126.865,255.249 117.248,264.469 121.745 M193.000 123.196 C 163.234 126.409,135.995 150.996,130.361 179.735 C 128.827 187.559,128.294 197.996,129.160 203.227 C 129.358 204.422,129.731 206.750,129.989 208.400 C 130.535 211.894,130.751 212.669,132.876 218.754 C 139.089 236.551,151.459 250.797,168.486 259.768 C 172.496 261.880,180.654 265.080,181.042 264.692 C 181.138 264.595,179.549 263.927,177.509 263.207 C 127.625 245.609,112.893 181.000,150.453 144.552 C 155.364 139.786,156.559 138.802,161.271 135.642 C 178.472 124.108,197.689 120.645,218.000 125.420 C 218.759 125.598,218.852 125.559,218.385 125.255 C 215.923 123.655,200.408 122.396,193.000 123.196 M130.091 123.616 C 129.082 124.021,128.663 124.791,128.869 125.861 C 128.981 126.442,129.272 126.302,130.502 125.071 C 132.464 123.110,132.350 122.708,130.091 123.616 M277.867 126.500 C 278.245 127.215,278.602 128.340,278.660 129.000 C 278.718 129.660,278.886 131.044,279.032 132.076 C 279.246 133.579,279.079 134.553,278.196 136.976 C 276.456 141.746,275.740 140.902,277.244 135.854 C 277.961 133.445,278.023 132.720,277.661 131.010 C 276.531 125.691,276.604 124.111,277.867 126.500 M219.233 125.766 C 219.325 125.857,220.930 126.464,222.800 127.114 C 224.670 127.765,227.767 129.066,229.682 130.005 L 233.163 131.713 233.306 133.956 L 233.449 136.200 233.524 133.763 L 233.600 131.327 229.300 129.303 C 224.401 126.998,218.325 124.863,219.233 125.766 M122.501 127.800 C 122.505 128.680,122.587 128.993,122.683 128.495 C 122.779 127.998,122.775 127.278,122.675 126.895 C 122.575 126.513,122.496 126.920,122.501 127.800 M128.221 134.892 C 127.847 135.102,127.424 135.157,127.282 135.015 C 126.930 134.663,128.069 133.995,128.532 134.282 C 128.736 134.408,128.596 134.682,128.221 134.892 M263.786 137.541 C 262.700 138.560,262.282 138.681,259.786 138.701 C 258.254 138.713,257.270 138.637,257.600 138.532 C 257.930 138.427,258.599 138.148,259.086 137.910 C 259.751 137.587,260.130 137.610,260.603 138.003 C 261.051 138.375,261.358 138.402,261.662 138.098 C 262.341 137.419,261.723 136.891,260.426 137.042 C 259.771 137.118,259.127 137.005,258.994 136.790 C 258.845 136.549,259.948 136.401,261.876 136.402 L 265.000 136.404 263.786 137.541 M233.640 137.480 C 233.570 139.029,234.453 142.422,235.691 145.353 C 236.353 146.919,237.587 150.270,238.435 152.800 C 239.283 155.330,239.980 157.040,239.984 156.600 C 239.996 155.320,238.537 150.916,236.803 147.000 C 235.754 144.630,234.805 141.704,234.209 139.000 C 233.918 137.680,233.662 136.996,233.640 137.480 M272.268 141.138 C 272.675 141.790,272.617 141.854,271.765 141.691 C 270.799 141.506,270.567 141.166,271.067 140.667 C 271.494 140.240,271.777 140.351,272.268 141.138 M251.108 142.325 C 251.206 142.618,251.023 142.707,250.633 142.557 C 250.285 142.424,250.000 142.139,250.000 141.924 C 250.000 141.398,250.909 141.727,251.108 142.325 M252.800 143.200 C 252.800 143.420,252.993 143.600,253.229 143.600 C 254.213 143.600,254.730 144.608,254.151 145.399 C 253.664 146.065,253.600 146.074,253.600 145.476 C 253.600 145.104,253.420 144.800,253.200 144.800 C 252.980 144.800,252.800 145.070,252.800 145.400 C 252.800 146.131,252.343 146.170,251.621 145.500 C 251.201 145.110,251.144 145.109,251.362 145.495 C 251.550 145.828,251.437 145.912,251.021 145.753 C 250.336 145.490,250.171 144.800,250.792 144.800 C 251.008 144.800,251.298 144.350,251.436 143.800 C 251.674 142.850,252.800 142.355,252.800 143.200 M266.400 144.800 C 266.400 145.020,266.940 145.200,267.600 145.200 C 268.260 145.200,268.800 145.391,268.800 145.624 C 268.800 145.857,268.620 145.936,268.400 145.800 C 268.180 145.664,268.000 145.736,268.000 145.960 C 268.000 146.611,264.694 147.483,264.495 146.885 C 264.406 146.618,264.009 146.400,263.612 146.400 C 263.216 146.400,262.376 146.115,261.746 145.766 L 260.600 145.132 262.222 145.317 C 263.239 145.434,264.126 145.297,264.599 144.952 C 265.481 144.306,266.400 144.229,266.400 144.800 M258.367 145.343 C 257.917 145.727,255.600 145.935,255.600 145.590 C 255.600 145.375,256.260 145.200,257.067 145.200 C 257.873 145.200,258.458 145.264,258.367 145.343 M255.021 146.833 C 255.186 147.100,256.420 147.220,258.235 147.144 C 261.736 146.998,263.137 147.723,260.338 148.233 C 259.382 148.408,258.484 148.523,258.343 148.489 C 258.202 148.456,257.607 148.872,257.022 149.414 C 256.437 149.956,255.842 150.400,255.698 150.400 C 255.108 150.400,252.800 147.789,252.800 147.122 C 252.800 146.312,254.557 146.084,255.021 146.833 M265.200 149.200 C 265.200 149.420,264.930 149.600,264.600 149.600 C 264.270 149.600,264.000 149.420,264.000 149.200 C 264.000 148.980,264.270 148.800,264.600 148.800 C 264.930 148.800,265.200 148.980,265.200 149.200 M197.200 151.035 C 194.079 151.375,190.164 152.115,189.600 152.473 C 189.190 152.733,189.443 152.773,190.400 152.599 C 197.920 151.235,205.193 151.245,212.000 152.630 C 212.770 152.787,213.300 152.804,213.177 152.668 C 212.370 151.774,201.051 150.617,197.200 151.035 M185.285 153.818 C 170.485 159.365,158.025 174.510,156.999 188.200 L 156.819 190.600 157.385 187.686 C 160.409 172.123,171.257 159.324,185.802 154.161 C 187.451 153.575,188.800 153.030,188.800 152.948 C 188.800 152.639,187.715 152.907,185.285 153.818 M213.635 152.968 C 213.728 153.061,215.316 153.689,217.164 154.363 C 219.012 155.038,220.962 155.876,221.497 156.227 C 222.032 156.577,222.561 156.772,222.673 156.660 C 222.955 156.378,219.950 154.884,216.812 153.746 C 214.355 152.855,213.251 152.585,213.635 152.968 M265.226 156.014 C 266.282 156.579,266.203 157.283,265.100 157.141 C 264.605 157.077,263.992 157.154,263.737 157.313 C 263.387 157.531,263.387 157.358,263.737 156.604 C 264.272 155.452,264.216 155.474,265.226 156.014 M223.420 157.135 C 223.629 157.319,225.060 158.294,226.600 159.300 C 230.245 161.681,235.788 166.592,237.755 169.183 C 238.610 170.309,239.510 171.164,239.755 171.083 C 240.634 170.791,241.132 161.733,240.441 158.600 C 240.295 157.940,240.180 160.222,240.184 163.671 C 240.188 167.120,240.069 170.065,239.918 170.215 C 239.768 170.365,238.060 168.823,236.122 166.786 C 232.711 163.201,228.210 159.490,225.077 157.680 C 223.534 156.789,222.725 156.523,223.420 157.135 M263.114 158.743 C 263.331 159.394,262.052 159.310,261.370 158.627 C 260.873 158.130,260.940 158.070,261.879 158.170 C 262.475 158.233,263.030 158.491,263.114 158.743 M265.537 182.469 C 263.482 184.268,260.982 186.473,259.982 187.369 C 258.982 188.266,257.630 189.450,256.978 190.000 C 253.776 192.699,249.403 196.540,240.585 204.400 C 235.279 209.130,230.411 213.453,229.769 214.006 C 229.126 214.559,223.577 219.419,217.439 224.806 C 199.248 240.768,201.295 239.173,199.000 239.179 C 179.405 239.237,161.284 222.832,157.269 201.400 C 156.970 199.802,156.885 199.656,156.847 200.675 C 156.623 206.726,162.044 218.395,168.211 225.135 C 176.129 233.789,189.695 240.000,200.678 240.000 C 200.749 240.000,201.856 239.055,203.139 237.900 C 204.422 236.745,209.405 232.380,214.213 228.200 C 219.020 224.020,227.734 216.367,233.577 211.194 C 239.420 206.021,248.610 197.921,254.000 193.195 C 259.390 188.470,264.340 184.121,265.000 183.531 C 269.699 179.334,269.899 179.225,270.232 180.691 C 270.786 183.136,271.130 184.163,271.164 183.477 C 271.233 182.097,270.302 179.200,269.790 179.200 C 269.506 179.200,267.593 180.671,265.537 182.469 M178.527 182.438 C 168.406 185.941,165.436 200.192,173.194 208.032 C 175.100 209.958,178.611 212.024,179.887 211.970 C 180.334 211.951,180.152 211.763,179.400 211.467 C 168.577 207.211,165.632 193.926,173.740 185.939 C 178.165 181.581,185.591 181.091,190.817 184.812 L 191.975 185.637 192.221 184.519 C 192.356 183.903,192.536 183.175,192.621 182.900 C 192.913 181.951,199.630 182.228,199.884 183.200 C 200.157 184.245,201.195 184.212,203.077 183.100 C 206.289 181.202,212.342 182.243,215.422 185.224 L 216.644 186.406 217.822 185.166 C 222.011 180.757,230.664 181.351,234.056 186.281 C 235.887 188.943,236.400 191.112,236.400 196.197 L 236.400 200.667 234.300 202.128 C 233.145 202.932,231.348 204.414,230.307 205.423 C 227.685 207.962,227.601 207.791,227.594 199.876 C 227.587 191.148,226.754 189.400,222.603 189.400 C 218.387 189.400,217.600 191.537,217.600 202.987 L 217.600 212.000 213.661 212.000 L 209.721 212.000 209.500 202.455 C 209.250 191.707,209.036 190.792,206.532 189.746 C 204.265 188.799,201.915 189.619,200.663 191.796 C 200.365 192.314,200.129 196.014,200.000 202.200 L 199.800 211.800 196.135 211.915 L 192.470 212.029 192.203 210.815 C 192.056 210.147,191.885 209.600,191.823 209.600 C 191.760 209.600,190.559 210.132,189.154 210.782 C 187.749 211.432,186.870 211.968,187.200 211.973 C 187.530 211.978,188.585 211.626,189.544 211.191 C 191.697 210.214,191.544 210.201,192.000 211.400 C 192.364 212.358,192.523 212.400,195.757 212.400 C 200.846 212.400,200.400 213.327,200.400 202.744 C 200.400 191.028,200.755 190.000,204.804 190.000 C 206.103 190.000,206.715 190.253,207.631 191.169 L 208.800 192.338 208.800 201.889 C 208.800 213.171,208.448 212.400,213.600 212.400 C 218.746 212.400,218.400 213.142,218.400 202.106 C 218.400 191.706,218.511 191.214,221.097 190.134 C 222.971 189.351,225.433 190.107,226.453 191.780 C 227.108 192.855,227.197 193.893,227.199 200.500 C 227.200 208.917,227.208 208.936,229.802 206.499 C 232.170 204.276,236.021 201.200,236.437 201.200 C 237.370 201.200,236.837 190.906,235.779 188.511 C 232.624 181.366,223.143 179.222,217.763 184.436 L 216.461 185.698 215.131 184.445 C 212.102 181.596,206.739 180.785,203.078 182.624 L 201.039 183.648 200.406 182.808 C 199.828 182.042,199.438 181.978,195.986 182.084 L 192.200 182.200 192.075 183.500 C 191.940 184.901,191.567 185.125,190.836 184.244 C 189.012 182.046,182.444 181.083,178.527 182.438 M271.469 186.600 C 271.596 187.920,271.768 189.075,271.850 189.167 C 272.141 189.490,271.916 186.186,271.579 185.200 C 271.358 184.552,271.320 185.045,271.469 186.600 M183.200 189.859 C 178.804 191.606,177.103 194.609,178.070 198.914 C 179.871 206.930,191.515 205.868,192.308 197.616 C 192.772 192.786,187.383 188.196,183.200 189.859 M272.162 195.800 C 272.162 199.320,272.224 200.706,272.298 198.881 C 272.372 197.056,272.372 194.176,272.297 192.481 C 272.222 190.786,272.161 192.280,272.162 195.800 M189.066 191.423 C 195.821 196.576,189.450 206.903,181.800 203.200 C 177.514 201.125,177.130 193.999,181.159 191.308 C 183.190 189.951,187.213 190.010,189.066 191.423 M156.548 195.200 C 156.548 197.510,156.614 198.455,156.695 197.300 C 156.776 196.145,156.776 194.255,156.695 193.100 C 156.614 191.945,156.548 192.890,156.548 195.200 M271.462 204.742 C 271.291 206.140,271.238 207.372,271.345 207.479 C 271.632 207.765,272.097 204.285,271.922 203.163 C 271.840 202.633,271.633 203.344,271.462 204.742 M270.055 212.018 C 269.241 215.626,268.316 218.869,267.379 221.400 C 267.174 221.953,267.212 222.077,267.502 221.800 C 268.394 220.951,271.479 209.438,271.111 208.333 C 271.037 208.111,270.562 209.770,270.055 212.018 M182.274 212.461 C 183.325 212.697,184.440 212.695,185.274 212.454 C 186.405 212.128,186.159 212.073,183.600 212.079 C 180.802 212.085,180.712 212.111,182.274 212.461 M265.784 225.027 C 262.116 233.735,256.336 241.570,248.204 248.859 C 243.105 253.429,243.300 253.377,240.624 250.900 C 235.537 246.192,234.000 245.088,234.000 246.141 C 234.000 246.454,235.710 248.304,237.800 250.252 C 242.372 254.513,242.343 254.251,238.500 256.502 C 228.734 262.223,220.317 265.231,210.223 266.609 C 207.588 266.969,207.091 267.115,208.400 267.145 C 211.196 267.208,218.905 265.753,222.091 264.561 C 223.031 264.210,224.790 263.550,226.000 263.096 C 229.586 261.749,235.565 258.855,238.720 256.940 C 240.339 255.957,241.987 255.208,242.382 255.276 C 243.238 255.424,257.028 268.582,257.768 269.957 C 258.124 270.620,258.374 270.765,258.582 270.430 C 258.775 270.118,256.051 267.115,250.913 261.974 L 242.944 254.003 245.972 251.447 C 252.419 246.004,257.149 240.768,261.128 234.672 C 263.592 230.897,267.342 223.426,267.115 222.745 C 267.025 222.475,266.426 223.503,265.784 225.027 M340.957 223.033 C 341.300 223.927,341.273 224.000,340.600 224.000 C 340.267 224.000,340.000 223.644,340.000 223.200 C 340.000 222.246,340.614 222.139,340.957 223.033 M124.000 240.340 C 124.000 240.534,124.398 241.199,124.885 241.818 C 125.488 242.584,125.616 242.995,125.285 243.105 C 124.703 243.299,124.630 244.400,125.200 244.400 C 125.420 244.400,125.600 244.130,125.600 243.800 C 125.600 243.020,126.357 243.024,126.657 243.805 C 126.978 244.640,125.990 245.831,125.557 245.131 C 125.385 244.851,125.129 244.738,124.988 244.878 C 124.848 245.019,125.063 245.468,125.467 245.878 C 125.870 246.287,126.830 247.391,127.600 248.331 C 131.489 253.078,134.324 255.669,135.148 255.228 C 136.159 254.687,136.924 254.676,136.596 255.207 C 136.458 255.430,136.132 255.489,135.872 255.338 C 135.613 255.186,135.731 255.441,136.136 255.903 C 136.612 256.445,136.779 257.036,136.609 257.571 C 136.446 258.085,136.523 258.400,136.810 258.400 C 137.066 258.400,137.369 258.040,137.484 257.600 C 137.599 257.160,137.949 256.800,138.261 256.800 C 138.941 256.800,138.331 258.200,137.505 258.535 C 137.117 258.692,137.133 258.832,137.577 259.141 C 137.994 259.431,138.296 259.356,138.664 258.871 C 138.945 258.502,139.180 258.389,139.187 258.620 C 139.194 258.851,139.001 259.239,138.759 259.481 C 138.465 259.775,138.446 260.153,138.702 260.610 C 139.053 261.239,139.140 261.221,139.711 260.405 C 140.120 259.822,140.520 259.625,140.868 259.838 C 141.537 260.246,143.069 262.157,142.800 262.248 C 142.323 262.410,144.195 264.000,144.862 264.000 C 145.329 264.000,145.600 264.289,145.600 264.786 C 145.600 265.218,145.960 265.765,146.400 266.000 C 147.421 266.546,147.447 267.332,146.434 267.011 C 144.660 266.448,145.267 268.738,147.114 269.579 C 147.942 269.956,148.101 269.902,148.291 269.175 C 148.442 268.595,148.740 268.396,149.255 268.530 C 150.445 268.841,150.153 268.381,147.161 265.226 C 145.610 263.590,144.001 261.819,143.586 261.291 C 143.170 260.763,141.405 258.771,139.664 256.865 C 137.922 254.959,135.453 252.230,134.178 250.800 C 130.219 246.363,124.000 239.971,124.000 240.340 M123.358 257.400 C 123.358 260.480,123.421 261.687,123.497 260.082 C 123.573 258.478,123.573 255.958,123.496 254.482 C 123.419 253.007,123.357 254.320,123.358 257.400 M121.309 259.200 C 121.309 260.190,121.387 260.595,121.482 260.100 C 121.578 259.605,121.578 258.795,121.482 258.300 C 121.387 257.805,121.309 258.210,121.309 259.200 M121.293 264.400 C 121.293 265.170,121.375 265.485,121.476 265.100 C 121.576 264.715,121.576 264.085,121.476 263.700 C 121.375 263.315,121.293 263.630,121.293 264.400 M123.274 266.722 C 123.197 269.337,124.246 272.549,125.290 272.897 C 125.657 273.019,125.604 273.253,125.096 273.761 C 124.242 274.615,124.213 274.846,125.000 274.545 C 125.330 274.418,125.600 274.154,125.600 273.957 C 125.600 273.761,126.185 273.599,126.900 273.598 L 128.200 273.595 127.038 272.989 C 124.912 271.880,123.693 269.618,123.488 266.400 L 123.348 264.200 123.274 266.722 M181.665 264.998 C 182.115 265.449,189.628 266.821,192.600 266.996 L 195.800 267.185 192.000 266.625 C 189.910 266.318,186.850 265.781,185.200 265.433 C 182.016 264.762,181.346 264.679,181.665 264.998 M198.500 267.497 C 199.985 267.574,202.415 267.574,203.900 267.497 C 205.385 267.420,204.170 267.357,201.200 267.357 C 198.230 267.357,197.015 267.420,198.500 267.497 M150.255 269.800 C 150.382 270.130,150.749 270.400,151.071 270.400 C 151.579 270.400,151.578 270.320,151.057 269.800 C 150.727 269.470,150.360 269.200,150.241 269.200 C 150.122 269.200,150.129 269.470,150.255 269.800 M122.000 271.595 C 122.000 271.849,122.271 272.328,122.602 272.659 C 123.138 273.196,123.189 273.162,123.066 272.352 C 122.923 271.419,122.000 270.764,122.000 271.595 M200.000 320.600 C 200.990 323.130,201.939 325.199,202.109 325.200 C 202.440 325.200,202.439 325.202,204.524 319.800 L 205.913 316.200 207.966 316.079 L 210.018 315.958 209.909 323.479 L 209.800 331.000 208.600 331.000 L 207.400 331.000 207.286 326.700 C 207.138 321.088,206.683 321.287,204.316 328.000 C 203.058 331.567,201.538 332.089,200.487 329.315 C 200.255 328.702,199.646 327.075,199.135 325.700 C 198.623 324.325,198.068 323.200,197.902 323.200 C 197.736 323.200,197.465 323.202,197.300 323.204 C 197.135 323.206,197.063 324.916,197.140 327.004 C 197.234 329.563,197.136 330.814,196.840 330.844 C 194.407 331.090,194.611 331.729,194.491 323.489 L 194.382 316.000 196.291 316.000 L 198.200 316.001 200.000 320.600 M215.743 317.500 C 215.880 318.325,215.993 320.625,215.996 322.611 C 216.002 327.551,217.749 329.664,220.787 328.405 C 222.808 327.568,222.986 327.055,223.200 321.441 L 223.400 316.200 224.640 316.079 L 225.880 315.958 226.114 319.879 C 226.576 327.607,224.445 331.200,219.400 331.200 C 214.611 331.200,213.432 329.425,213.271 321.969 L 213.142 316.000 214.319 316.000 C 215.368 316.000,215.522 316.163,215.743 317.500 M240.656 316.601 C 241.083 317.714,240.424 318.988,238.277 321.200 C 235.148 324.425,232.350 327.996,232.616 328.425 C 232.743 328.631,234.536 328.800,236.600 328.800 C 240.529 328.800,241.122 329.050,240.399 330.402 C 239.983 331.179,239.655 331.215,234.080 331.111 L 228.200 331.000 228.080 329.776 C 227.977 328.720,228.515 327.927,231.980 324.022 C 236.993 318.374,236.991 318.400,232.387 318.400 C 228.647 318.400,227.975 318.085,228.545 316.600 C 228.887 315.709,240.314 315.709,240.656 316.601 M251.379 317.300 C 252.273 319.351,254.677 325.223,255.432 327.200 C 255.811 328.190,256.273 329.171,256.460 329.380 C 257.254 330.267,256.815 331.200,255.605 331.200 C 254.646 331.200,254.211 330.884,253.400 329.600 L 252.390 328.000 249.495 328.006 C 246.224 328.013,245.945 328.128,245.159 329.800 C 244.516 331.167,242.000 331.832,242.000 330.636 C 242.000 329.824,243.875 325.136,246.223 320.077 C 248.421 315.341,250.126 314.423,251.379 317.300 M187.887 320.000 C 188.280 320.000,189.200 322.635,189.200 323.761 C 189.200 327.518,185.975 329.274,183.265 326.993 C 179.946 324.200,182.531 318.512,186.597 319.662 C 187.256 319.848,187.836 320.000,187.887 320.000 M248.681 321.057 C 247.122 324.107,247.427 325.581,249.620 325.594 C 251.299 325.604,251.642 324.926,250.907 323.045 C 249.744 320.067,249.361 319.725,248.681 321.057 M250.200 323.200 L 250.821 324.400 249.610 324.400 C 248.236 324.400,248.235 324.399,248.864 323.019 C 249.444 321.746,249.449 321.747,250.200 323.200 M174.700 323.876 C 174.315 323.976,173.685 323.976,173.300 323.876 C 172.915 323.775,173.230 323.693,174.000 323.693 C 174.770 323.693,175.085 323.775,174.700 323.876 M198.772 327.620 C 198.787 328.181,198.995 328.835,199.234 329.074 C 199.872 329.712,199.511 331.371,198.700 331.525 C 198.077 331.644,198.003 331.293,198.028 328.329 C 198.054 325.301,198.691 324.693,198.772 327.620 M193.324 329.313 C 193.117 331.322,193.024 331.515,192.557 330.900 C 192.232 330.472,192.020 330.395,192.013 330.700 C 192.006 330.975,191.834 331.200,191.631 331.200 C 191.428 331.200,191.506 330.705,191.806 330.100 C 192.106 329.495,192.547 328.480,192.787 327.845 C 193.412 326.186,193.595 326.687,193.324 329.313 M206.000 328.224 C 206.000 329.071,205.838 329.547,205.600 329.400 C 204.937 328.990,205.161 326.800,205.867 326.800 C 205.940 326.800,206.000 327.441,206.000 328.224 M178.540 329.013 C 178.340 329.533,177.600 329.864,177.600 329.433 C 177.600 328.838,178.141 328.040,178.424 328.215 C 178.612 328.331,178.664 328.690,178.540 329.013 M249.300 329.482 C 248.805 329.578,247.995 329.578,247.500 329.482 C 247.005 329.387,247.410 329.309,248.400 329.309 C 249.390 329.309,249.795 329.387,249.300 329.482 M252.400 329.545 C 252.400 329.734,251.950 329.803,251.400 329.698 C 250.850 329.593,250.400 329.438,250.400 329.353 C 250.400 329.269,250.850 329.200,251.400 329.200 C 251.950 329.200,252.400 329.355,252.400 329.545 " stroke="none" fill="#719585" fill-rule="evenodd"></path><path id="path1" d="M129.581 93.619 C 122.722 94.646,115.045 98.422,110.273 103.117 C 104.885 108.418,102.043 113.644,100.330 121.400 C 99.426 125.495,99.562 265.533,100.474 269.617 C 103.010 280.971,109.154 289.237,118.800 294.274 C 124.951 297.486,131.072 298.654,145.868 299.440 C 149.572 299.637,150.690 299.821,150.541 300.209 C 150.206 301.082,150.910 301.190,158.449 301.418 C 163.735 301.578,165.951 301.789,166.390 302.174 C 166.757 302.496,167.518 302.630,168.300 302.509 C 169.108 302.385,169.600 302.478,169.600 302.755 C 169.600 303.000,169.879 303.200,170.219 303.200 C 170.560 303.200,171.237 303.663,171.724 304.230 C 172.606 305.255,172.613 305.256,173.505 304.483 C 174.658 303.482,174.632 303.281,173.331 303.127 C 172.743 303.057,172.188 302.775,172.098 302.500 C 171.825 301.671,173.123 301.472,174.510 302.130 C 175.371 302.539,176.388 302.672,177.507 302.522 C 178.634 302.371,179.200 302.446,179.200 302.747 C 179.200 302.996,179.560 303.200,180.000 303.200 C 180.622 303.200,180.800 303.467,180.800 304.400 C 180.800 305.573,180.844 305.600,182.800 305.600 C 183.900 305.600,184.800 305.420,184.800 305.200 C 184.800 304.980,184.620 304.800,184.400 304.800 C 184.180 304.800,184.000 304.620,184.000 304.400 C 184.000 304.180,184.360 304.000,184.800 304.000 C 185.240 304.000,185.600 303.820,185.600 303.600 C 185.600 303.380,185.960 303.200,186.400 303.200 C 187.022 303.200,187.200 303.467,187.200 304.400 C 187.200 305.467,187.333 305.600,188.400 305.600 C 189.060 305.600,189.600 305.780,189.600 306.000 C 189.600 306.737,192.396 306.434,193.292 305.600 C 194.184 304.769,196.000 304.501,196.000 305.200 C 196.000 305.420,196.349 305.600,196.776 305.600 C 197.203 305.600,197.664 305.780,197.800 306.000 C 198.283 306.781,201.934 306.466,202.834 305.566 C 203.729 304.671,207.432 304.555,208.130 305.400 C 208.345 305.659,208.532 305.624,208.664 305.300 C 209.016 304.433,212.526 304.665,213.200 305.600 C 213.794 306.424,216.000 306.739,216.000 306.000 C 216.000 305.780,216.360 305.600,216.800 305.600 C 217.240 305.600,217.600 305.420,217.600 305.200 C 217.600 304.954,219.600 304.800,222.800 304.800 C 228.271 304.800,230.169 305.545,226.300 306.174 C 223.635 306.608,225.381 307.751,228.200 307.418 C 231.973 306.973,246.602 307.087,253.673 307.616 C 259.229 308.032,261.073 308.043,262.273 307.665 C 263.113 307.400,264.880 307.197,266.200 307.212 C 272.594 307.286,286.646 306.971,287.000 306.744 C 287.220 306.604,288.480 306.280,289.800 306.024 C 291.120 305.768,293.190 305.090,294.400 304.518 C 295.610 303.945,296.960 303.336,297.400 303.164 C 300.587 301.920,302.042 301.156,302.248 300.620 C 302.378 300.279,302.709 300.000,302.982 300.000 C 303.601 300.000,305.200 298.642,305.200 298.115 C 305.200 297.900,305.558 297.400,305.995 297.005 C 306.432 296.609,307.008 295.681,307.275 294.943 C 307.542 294.204,307.913 293.600,308.099 293.600 C 308.793 293.600,310.400 291.449,310.400 290.522 C 310.400 289.993,310.661 289.056,310.979 288.441 C 311.949 286.564,312.638 262.695,311.748 261.805 C 311.304 261.362,311.288 260.881,311.659 259.271 C 311.930 258.100,311.977 256.979,311.776 256.542 C 311.588 256.134,311.413 254.630,311.388 253.200 C 311.326 249.657,310.787 190.002,310.808 189.000 C 310.980 180.846,310.370 159.058,309.958 158.620 C 309.761 158.411,309.600 157.736,309.600 157.120 C 309.600 156.443,309.385 156.000,309.057 156.000 C 308.649 156.000,308.444 154.889,308.231 151.525 C 308.075 149.063,307.779 146.735,307.574 146.351 C 307.368 145.967,307.200 145.201,307.200 144.650 C 307.200 144.098,307.020 143.536,306.800 143.400 C 306.580 143.264,306.400 142.803,306.400 142.376 C 306.400 141.949,306.220 141.600,306.000 141.600 C 305.780 141.600,305.600 141.357,305.600 141.060 C 305.600 140.762,305.143 139.661,304.585 138.611 C 303.353 136.294,302.160 131.913,301.805 128.400 C 300.701 117.488,296.203 108.055,289.253 102.073 C 284.644 98.107,281.587 96.512,274.400 94.326 L 271.400 93.413 201.600 93.350 C 163.210 93.315,130.802 93.436,129.581 93.619 M264.431 110.572 C 279.615 113.790,286.387 129.557,278.758 143.928 C 274.423 152.092,251.999 176.000,248.676 176.000 C 245.603 176.000,245.148 174.603,246.391 168.980 C 248.087 161.311,247.370 157.169,241.631 141.450 C 235.636 125.032,244.361 110.743,260.800 110.056 C 261.350 110.033,262.984 110.265,264.431 110.572 M150.400 115.452 C 150.400 115.590,149.604 116.445,148.632 117.352 C 145.378 120.385,140.650 124.913,134.600 130.792 C 123.998 141.093,120.398 144.236,119.954 143.580 C 119.712 143.223,119.614 138.773,119.700 132.000 C 119.862 119.074,120.001 118.579,124.200 115.953 C 125.400 115.203,150.400 114.724,150.400 115.452 M126.503 120.012 C 124.539 120.801,123.967 122.583,124.067 127.600 C 124.227 135.668,123.419 135.704,132.302 127.231 C 136.536 123.193,140.000 119.823,140.000 119.744 C 140.000 119.425,127.337 119.676,126.503 120.012 M133.236 122.349 L 134.160 123.097 131.818 125.366 C 129.283 127.821,128.435 128.012,127.821 126.269 C 126.856 123.524,130.990 120.530,133.236 122.349 M212.328 123.410 C 217.536 124.398,224.363 126.625,229.310 128.949 L 233.883 131.098 234.110 134.649 C 234.381 138.910,235.489 143.205,237.589 148.143 C 240.204 154.291,240.948 157.795,240.956 164.000 C 240.967 172.318,240.478 173.119,237.596 169.500 C 223.104 151.299,196.776 146.500,177.644 158.572 C 146.604 178.158,152.073 223.979,186.961 236.641 C 188.535 237.212,195.014 238.537,198.464 238.992 L 200.329 239.238 203.864 236.174 C 205.809 234.489,209.204 231.555,211.409 229.655 C 217.301 224.577,230.340 213.120,238.587 205.775 C 256.798 189.555,269.378 178.776,269.966 178.888 C 271.364 179.155,272.499 186.525,272.540 195.600 C 272.592 207.055,271.211 213.865,266.501 225.400 C 263.070 233.801,256.144 243.000,247.800 250.239 C 245.820 251.957,244.140 253.505,244.068 253.678 C 243.923 254.023,258.205 268.400,258.692 268.400 C 258.856 268.400,261.628 265.767,264.851 262.549 C 271.123 256.288,271.600 256.056,271.600 259.278 L 271.600 261.308 266.500 266.468 C 263.695 269.305,261.349 271.773,261.288 271.951 C 261.106 272.475,272.929 272.853,274.322 272.367 C 276.406 271.641,276.800 269.904,276.800 261.441 C 276.800 255.402,276.693 254.010,276.200 253.600 C 275.160 252.737,275.537 251.707,277.654 249.622 C 280.922 246.406,280.800 246.052,280.800 258.750 C 280.800 277.005,281.000 276.800,263.216 276.800 C 249.854 276.800,250.363 277.003,254.200 273.200 C 257.516 269.914,257.929 270.849,249.591 262.778 C 241.029 254.491,242.351 255.111,238.311 257.489 C 180.344 291.600,111.532 236.475,132.095 172.400 C 142.680 139.413,179.186 117.123,212.328 123.410 M212.298 182.215 C 213.064 182.535,214.315 183.345,215.076 184.013 L 216.461 185.229 217.901 183.965 C 223.383 179.152,232.786 181.257,235.924 188.000 C 237.667 191.744,237.735 201.048,236.025 201.835 C 235.589 202.036,233.602 203.613,231.609 205.340 C 226.677 209.614,226.801 209.738,226.794 200.513 C 226.787 191.887,226.623 191.268,224.136 190.476 C 219.346 188.952,218.400 191.041,218.400 203.144 C 218.400 213.764,218.891 212.803,213.467 212.794 C 208.489 212.786,208.897 213.672,208.738 202.529 C 208.579 191.406,208.390 190.723,205.398 190.472 C 201.035 190.106,200.800 190.725,200.800 202.566 C 200.800 213.601,201.204 212.800,195.634 212.800 C 192.085 212.800,192.010 212.780,191.758 211.776 C 191.571 211.031,191.324 210.824,190.851 211.017 C 187.076 212.554,185.650 212.852,182.792 212.702 C 167.161 211.877,162.862 189.828,176.960 182.783 C 181.088 180.720,188.000 181.266,190.893 183.884 C 191.547 184.476,191.600 184.462,191.600 183.695 C 191.600 181.718,191.848 181.600,196.020 181.600 C 199.598 181.600,200.009 181.678,200.560 182.464 C 201.059 183.177,201.270 183.240,201.770 182.825 C 203.710 181.215,209.150 180.900,212.298 182.215 M309.600 189.600 C 309.600 190.260,309.420 190.800,309.200 190.800 C 308.980 190.800,308.800 190.260,308.800 189.600 C 308.800 188.940,308.980 188.400,309.200 188.400 C 309.420 188.400,309.600 188.940,309.600 189.600 M182.800 190.850 C 177.618 192.399,177.178 201.103,182.184 203.015 C 186.678 204.731,191.064 202.237,191.498 197.718 C 191.969 192.819,187.643 189.402,182.800 190.850 M128.239 243.100 C 132.164 247.445,135.652 251.270,135.990 251.600 C 136.329 251.930,139.032 254.900,141.996 258.200 C 144.960 261.500,149.864 266.861,152.893 270.114 C 155.922 273.367,158.400 276.202,158.400 276.414 C 158.400 277.332,126.342 276.883,124.800 275.944 C 123.127 274.924,121.850 273.502,120.899 271.600 C 120.246 270.292,119.672 236.624,120.284 235.500 C 120.655 234.818,121.415 235.543,128.239 243.100 M124.800 258.220 C 124.800 273.483,123.785 272.400,138.089 272.400 C 149.348 272.400,148.900 272.783,143.800 267.517 C 141.820 265.473,139.210 262.719,138.000 261.397 C 132.944 255.875,129.175 251.661,127.360 249.500 C 126.297 248.235,125.286 247.200,125.114 247.200 C 124.941 247.200,124.800 252.159,124.800 258.220 M132.937 263.972 C 137.386 268.535,137.873 269.416,136.182 269.840 C 131.313 271.062,126.800 267.701,126.800 262.853 C 126.800 258.377,127.627 258.528,132.937 263.972 M273.121 266.285 C 273.290 268.564,272.009 270.007,269.571 270.282 C 266.400 270.639,266.356 269.753,269.402 266.828 C 272.315 264.031,272.946 263.939,273.121 266.285 " stroke="none" fill="#222828" fill-rule="evenodd"></path><path id="path2" d="M255.800 121.271 C 243.388 125.901,246.884 144.491,260.146 144.383 C 265.971 144.336,271.200 139.438,271.200 134.028 C 271.200 131.546,271.619 131.714,265.000 131.544 L 259.400 131.400 259.400 133.400 L 259.400 135.400 262.600 135.600 C 265.724 135.795,265.867 135.869,265.660 137.181 C 265.627 137.390,264.803 138.110,263.828 138.781 C 259.801 141.552,254.889 139.721,253.255 134.840 C 251.253 128.860,257.350 123.025,262.761 125.743 C 264.940 126.837,266.650 126.790,268.400 125.588 C 269.120 125.093,266.917 122.939,264.469 121.745 C 262.718 120.891,257.573 120.610,255.800 121.271 M193.600 123.659 C 152.629 127.908,122.766 167.621,130.327 207.800 C 139.764 257.942,194.201 282.451,238.500 256.502 C 242.343 254.251,242.372 254.513,237.800 250.252 C 235.710 248.304,234.000 246.454,234.000 246.141 C 234.000 245.088,235.537 246.192,240.624 250.900 C 243.300 253.377,243.105 253.429,248.204 248.859 C 264.342 234.394,272.615 215.063,271.884 193.530 C 271.693 187.911,271.353 185.283,270.199 180.491 C 269.901 179.253,269.581 179.440,265.000 183.531 C 264.340 184.121,259.390 188.470,254.000 193.195 C 248.610 197.921,239.420 206.021,233.577 211.194 C 227.734 216.367,219.020 224.020,214.213 228.200 C 209.405 232.380,204.422 236.745,203.139 237.900 C 201.856 239.055,200.749 240.000,200.678 240.000 C 166.787 240.000,144.580 199.599,163.135 171.698 C 180.093 146.197,214.339 143.893,236.122 166.786 C 240.371 171.252,240.201 171.375,240.153 163.871 C 240.110 157.179,239.513 154.633,236.002 146.168 C 234.249 141.942,233.700 139.639,233.345 135.024 L 233.088 131.676 229.644 129.984 C 218.630 124.572,206.062 122.366,193.600 123.659 M204.250 182.563 C 203.397 182.881,202.506 183.334,202.270 183.570 C 201.545 184.295,200.112 184.073,199.884 183.200 C 199.630 182.228,192.913 181.951,192.621 182.900 C 192.536 183.175,192.356 183.903,192.221 184.519 L 191.975 185.637 190.817 184.812 C 185.591 181.091,178.165 181.581,173.740 185.939 C 162.225 197.281,174.533 217.389,188.980 210.838 C 190.482 210.157,191.761 209.600,191.824 209.600 C 191.886 209.600,192.056 210.147,192.203 210.815 L 192.470 212.029 196.135 211.915 L 199.800 211.800 200.000 202.200 C 200.129 196.014,200.365 192.314,200.663 191.796 C 201.915 189.619,204.265 188.799,206.532 189.746 C 209.036 190.792,209.250 191.707,209.500 202.455 L 209.721 212.000 213.661 212.000 L 217.600 212.000 217.600 202.987 C 217.600 191.537,218.387 189.400,222.603 189.400 C 226.754 189.400,227.587 191.148,227.594 199.876 C 227.601 207.791,227.685 207.962,230.307 205.423 C 231.348 204.414,233.145 202.932,234.300 202.128 L 236.400 200.667 236.400 196.197 C 236.400 191.112,235.887 188.943,234.056 186.281 C 230.664 181.351,222.011 180.757,217.822 185.166 L 216.644 186.406 215.422 185.224 C 212.759 182.647,207.433 181.379,204.250 182.563 M189.142 190.914 C 193.720 193.944,193.212 201.380,188.274 203.623 C 182.397 206.291,176.840 201.821,178.041 195.393 C 178.591 192.447,179.711 191.246,183.200 189.859 C 184.498 189.343,187.600 189.894,189.142 190.914 M194.491 323.489 C 194.611 331.729,194.407 331.090,196.840 330.844 C 197.136 330.814,197.234 329.563,197.140 327.004 C 197.063 324.916,197.135 323.206,197.300 323.204 C 197.465 323.202,197.736 323.200,197.902 323.200 C 198.068 323.200,198.623 324.325,199.135 325.700 C 199.646 327.075,200.255 328.702,200.487 329.315 C 201.538 332.089,203.058 331.567,204.316 328.000 C 206.683 321.287,207.138 321.088,207.286 326.700 L 207.400 331.000 208.600 331.000 L 209.800 331.000 209.909 323.479 L 210.018 315.958 207.966 316.079 L 205.913 316.200 204.524 319.800 C 202.439 325.202,202.440 325.200,202.109 325.200 C 201.939 325.199,200.990 323.130,200.000 320.600 L 198.200 316.001 196.291 316.000 L 194.382 316.000 194.491 323.489 M213.271 321.969 C 213.432 329.425,214.611 331.200,219.400 331.200 C 224.445 331.200,226.576 327.607,226.114 319.879 L 225.880 315.958 224.640 316.079 L 223.400 316.200 223.200 321.441 C 222.986 327.055,222.808 327.568,220.787 328.405 C 217.749 329.664,216.002 327.551,215.996 322.611 C 215.989 316.980,215.740 316.000,214.319 316.000 L 213.142 316.000 213.271 321.969 M228.545 316.600 C 227.975 318.085,228.647 318.400,232.387 318.400 C 236.991 318.400,236.993 318.374,231.980 324.022 C 228.515 327.927,227.977 328.720,228.080 329.776 L 228.200 331.000 234.080 331.111 C 239.655 331.215,239.983 331.179,240.399 330.402 C 241.122 329.050,240.529 328.800,236.600 328.800 C 234.536 328.800,232.743 328.631,232.616 328.425 C 232.350 327.996,235.148 324.425,238.277 321.200 C 240.424 318.988,241.083 317.714,240.656 316.601 C 240.314 315.709,228.887 315.709,228.545 316.600 M246.223 320.077 C 243.875 325.136,242.000 329.824,242.000 330.636 C 242.000 331.832,244.516 331.167,245.159 329.800 C 245.945 328.128,246.224 328.013,249.495 328.006 L 252.390 328.000 253.400 329.600 C 254.211 330.884,254.646 331.200,255.605 331.200 C 256.815 331.200,257.254 330.267,256.460 329.380 C 256.273 329.171,255.811 328.190,255.432 327.200 C 254.677 325.223,252.273 319.351,251.379 317.300 C 250.126 314.423,248.421 315.341,246.223 320.077 M250.907 323.045 C 251.642 324.926,251.299 325.604,249.620 325.594 C 247.427 325.581,247.122 324.107,248.681 321.057 C 249.361 319.725,249.744 320.067,250.907 323.045 M173.300 323.876 C 173.685 323.976,174.315 323.976,174.700 323.876 C 175.085 323.775,174.770 323.693,174.000 323.693 C 173.230 323.693,172.915 323.775,173.300 323.876 " stroke="none" fill="#f9fafa" fill-rule="evenodd"></path><path id="path3" d="M257.580 110.424 C 243.159 112.548,236.095 126.289,241.631 141.450 C 247.370 157.169,248.087 161.311,246.391 168.980 C 245.148 174.603,245.603 176.000,248.676 176.000 C 251.999 176.000,274.423 152.092,278.758 143.928 C 286.387 129.557,279.615 113.790,264.431 110.572 C 261.537 109.958,260.847 109.943,257.580 110.424 M266.686 111.954 C 275.855 115.146,281.190 122.592,281.191 132.200 C 281.192 136.879,278.929 143.384,276.196 146.566 C 275.648 147.203,275.200 147.864,275.200 148.034 C 275.200 148.204,274.963 148.581,274.673 148.871 C 274.383 149.162,273.504 150.241,272.721 151.268 C 271.669 152.646,271.178 153.018,270.848 152.688 C 270.517 152.357,270.400 152.448,270.400 153.033 C 270.400 153.469,269.995 154.344,269.500 154.976 C 268.348 156.447,264.000 160.835,264.000 160.526 C 264.000 160.398,263.609 160.811,263.131 161.446 C 261.663 163.396,259.027 165.983,258.500 165.992 C 258.225 165.996,258.000 166.211,258.000 166.469 C 258.000 167.130,251.240 173.932,249.857 174.662 C 246.900 176.223,246.172 174.802,247.205 169.483 C 248.762 161.462,247.920 155.210,243.934 145.209 C 239.700 134.585,239.344 128.025,242.649 121.504 C 244.970 116.923,252.141 111.648,256.800 111.094 C 260.910 110.606,263.445 110.826,266.686 111.954 M256.567 113.550 C 249.442 115.408,243.820 122.059,242.998 129.600 C 242.418 134.924,244.789 142.451,247.943 145.301 C 248.744 146.025,249.400 146.805,249.400 147.034 C 249.400 147.263,250.149 148.301,251.065 149.341 L 252.729 151.232 252.998 150.009 C 253.303 148.619,251.584 146.082,250.300 146.029 C 249.833 146.010,249.600 145.676,249.600 145.029 C 249.600 144.494,249.368 143.819,249.084 143.529 C 247.815 142.229,246.805 139.484,247.429 139.028 C 248.183 138.477,247.450 136.000,246.534 136.000 C 246.114 136.000,246.020 135.742,246.205 135.100 C 246.347 134.605,246.543 133.913,246.639 133.561 C 246.736 133.210,246.563 131.950,246.254 130.761 C 245.679 128.545,245.913 127.600,247.036 127.600 C 247.353 127.600,247.479 127.350,247.343 126.995 C 247.215 126.662,247.326 126.130,247.590 125.812 C 247.853 125.495,247.941 125.028,247.784 124.775 C 247.578 124.440,247.406 124.463,247.156 124.857 C 246.892 125.274,246.811 125.228,246.806 124.662 C 246.792 122.981,248.358 121.556,249.900 121.845 C 251.132 122.076,251.293 122.021,251.071 121.441 C 250.893 120.976,251.089 120.659,251.707 120.410 C 252.554 120.069,252.558 120.049,251.780 120.025 C 251.329 120.011,250.744 120.216,250.480 120.480 C 250.107 120.853,250.001 120.831,250.006 120.380 C 250.019 119.165,250.593 118.796,251.892 119.169 C 252.847 119.443,253.193 119.394,253.359 118.964 C 253.478 118.654,253.851 118.400,254.187 118.400 C 254.923 118.400,255.005 117.740,254.300 117.488 C 253.238 117.109,254.376 116.814,257.504 116.660 C 259.866 116.543,260.983 116.653,261.562 117.058 C 262.378 117.630,264.570 117.489,265.385 116.813 C 265.953 116.341,269.577 117.055,270.401 117.801 C 270.765 118.130,271.185 118.400,271.334 118.400 C 271.756 118.400,275.200 121.999,275.200 122.440 C 275.200 122.657,275.560 123.220,276.000 123.692 C 278.048 125.890,275.918 121.522,273.763 119.103 C 269.715 114.562,262.108 112.105,256.567 113.550 M130.008 122.301 C 128.151 123.234,127.298 124.781,127.821 126.269 C 128.435 128.012,129.283 127.821,131.818 125.366 L 134.160 123.097 133.236 122.349 C 132.096 121.426,131.759 121.421,130.008 122.301 M132.000 123.387 C 132.000 123.489,131.326 124.247,130.502 125.071 C 129.018 126.556,128.286 126.317,128.957 124.567 C 129.259 123.782,132.000 122.719,132.000 123.387 M276.971 127.100 C 277.116 128.145,277.426 129.905,277.661 131.010 C 278.023 132.720,277.961 133.445,277.244 135.854 C 275.740 140.902,276.456 141.746,278.196 136.976 C 279.079 134.553,279.246 133.579,279.032 132.076 C 278.886 131.044,278.718 129.660,278.660 129.000 C 278.553 127.793,277.383 125.200,276.944 125.200 C 276.815 125.200,276.827 126.055,276.971 127.100 M258.994 136.790 C 259.127 137.005,259.771 137.118,260.426 137.042 C 261.723 136.891,262.341 137.419,261.662 138.098 C 261.358 138.402,261.051 138.375,260.603 138.003 C 260.130 137.610,259.751 137.587,259.086 137.910 C 258.599 138.148,257.930 138.427,257.600 138.532 C 257.270 138.637,258.254 138.713,259.786 138.701 C 262.282 138.681,262.700 138.560,263.786 137.541 L 265.000 136.404 261.876 136.402 C 259.948 136.401,258.845 136.549,258.994 136.790 M271.067 140.667 C 270.567 141.166,270.799 141.506,271.765 141.691 C 272.617 141.854,272.675 141.790,272.268 141.138 C 271.777 140.351,271.494 140.240,271.067 140.667 M250.000 141.924 C 250.000 142.139,250.285 142.424,250.633 142.557 C 251.023 142.707,251.206 142.618,251.108 142.325 C 250.909 141.727,250.000 141.398,250.000 141.924 M251.436 143.800 C 251.298 144.350,251.008 144.800,250.792 144.800 C 250.171 144.800,250.336 145.490,251.021 145.753 C 251.437 145.912,251.550 145.828,251.362 145.495 C 251.144 145.109,251.201 145.110,251.621 145.500 C 252.343 146.170,252.800 146.131,252.800 145.400 C 252.800 145.070,252.980 144.800,253.200 144.800 C 253.420 144.800,253.600 145.104,253.600 145.476 C 253.600 146.074,253.664 146.065,254.151 145.399 C 254.730 144.608,254.213 143.600,253.229 143.600 C 252.993 143.600,252.800 143.420,252.800 143.200 C 252.800 142.355,251.674 142.850,251.436 143.800 M264.599 144.952 C 264.126 145.297,263.239 145.434,262.222 145.317 L 260.600 145.132 261.746 145.766 C 262.376 146.115,263.216 146.400,263.612 146.400 C 264.009 146.400,264.406 146.618,264.495 146.885 C 264.694 147.483,268.000 146.611,268.000 145.960 C 268.000 145.736,268.180 145.664,268.400 145.800 C 268.620 145.936,268.800 145.857,268.800 145.624 C 268.800 145.391,268.260 145.200,267.600 145.200 C 266.940 145.200,266.400 145.020,266.400 144.800 C 266.400 144.229,265.481 144.306,264.599 144.952 M255.600 145.590 C 255.600 145.814,256.153 145.875,256.900 145.733 C 258.723 145.386,258.781 145.200,257.067 145.200 C 256.260 145.200,255.600 145.375,255.600 145.590 M252.800 147.122 C 252.800 147.789,255.108 150.400,255.698 150.400 C 255.842 150.400,256.437 149.956,257.022 149.414 C 257.607 148.872,258.202 148.456,258.343 148.489 C 258.484 148.523,259.382 148.408,260.338 148.233 C 263.137 147.723,261.736 146.998,258.235 147.144 C 256.420 147.220,255.186 147.100,255.021 146.833 C 254.557 146.084,252.800 146.312,252.800 147.122 M264.000 149.200 C 264.000 149.420,264.270 149.600,264.600 149.600 C 264.930 149.600,265.200 149.420,265.200 149.200 C 265.200 148.980,264.930 148.800,264.600 148.800 C 264.270 148.800,264.000 148.980,264.000 149.200 M263.737 156.604 C 263.387 157.358,263.387 157.531,263.737 157.313 C 263.992 157.154,264.605 157.077,265.100 157.141 C 266.203 157.283,266.282 156.579,265.226 156.014 C 264.216 155.474,264.272 155.452,263.737 156.604 M261.370 158.627 C 262.052 159.310,263.331 159.394,263.114 158.743 C 263.030 158.491,262.475 158.233,261.879 158.170 C 260.940 158.070,260.873 158.130,261.370 158.627 M243.127 253.807 C 243.013 253.921,246.261 257.333,250.344 261.389 C 254.428 265.446,257.678 268.856,257.567 268.967 C 257.456 269.078,254.133 266.033,250.182 262.201 C 246.232 258.369,242.730 255.227,242.400 255.220 C 242.070 255.213,245.220 258.533,249.400 262.598 C 257.779 270.747,257.215 270.309,257.902 269.208 C 258.316 268.546,244.477 253.600,243.450 253.600 C 243.386 253.600,243.240 253.693,243.127 253.807 M127.043 260.233 C 125.465 264.345,128.655 269.556,132.969 269.914 C 138.369 270.362,138.365 269.538,132.937 263.972 C 128.790 259.719,127.543 258.929,127.043 260.233 M269.402 266.828 C 266.356 269.753,266.400 270.639,269.571 270.282 C 272.009 270.007,273.290 268.564,273.121 266.285 C 272.946 263.939,272.315 264.031,269.402 266.828 " stroke="none" fill="#296765" fill-rule="evenodd"></path><path id="path4" d="M128.047 93.436 C 112.593 96.834,102.525 107.080,99.782 122.200 C 99.035 126.318,98.901 262.484,99.639 267.323 C 100.960 275.981,103.897 282.223,109.308 287.874 C 111.825 290.503,117.184 294.800,117.945 294.800 C 118.195 294.800,118.400 294.980,118.400 295.200 C 118.400 295.420,118.715 295.606,119.100 295.613 C 119.975 295.629,121.280 296.586,120.919 296.948 C 120.434 297.432,120.522 298.803,121.066 299.255 C 121.360 299.499,121.600 300.027,121.600 300.429 C 121.600 300.831,121.858 301.305,122.174 301.482 C 122.490 301.658,123.255 302.543,123.874 303.448 C 125.745 306.181,128.135 308.820,129.300 309.437 C 129.910 309.761,130.400 310.359,130.400 310.781 C 130.400 311.680,131.659 312.744,133.936 313.771 C 134.842 314.179,135.688 314.848,135.818 315.257 C 135.948 315.666,136.284 316.000,136.565 316.000 C 136.846 316.000,137.402 316.360,137.800 316.800 C 138.198 317.240,138.924 317.600,139.413 317.600 C 139.902 317.600,140.535 317.880,140.819 318.223 C 141.104 318.566,141.980 319.115,142.767 319.444 C 143.554 319.773,145.009 320.724,145.999 321.556 C 148.463 323.629,149.460 324.118,150.282 323.658 C 150.733 323.405,151.224 323.456,151.777 323.811 C 152.230 324.102,153.410 324.385,154.400 324.441 C 155.390 324.496,156.924 324.933,157.809 325.412 C 158.694 325.891,159.981 326.365,160.668 326.466 L 161.919 326.650 161.944 324.549 C 162.022 318.000,168.523 313.644,174.000 316.471 C 176.029 317.518,176.352 318.291,175.379 319.776 C 174.630 320.919,173.549 321.102,172.809 320.211 C 170.632 317.588,166.000 320.305,166.000 324.204 C 166.000 327.195,170.319 329.194,172.993 327.441 C 174.503 326.452,174.217 326.000,172.080 326.000 C 169.897 326.000,169.200 325.507,169.200 323.963 C 169.200 322.560,169.713 322.400,174.201 322.400 L 177.936 322.400 178.202 321.190 C 179.647 314.613,189.526 314.006,192.656 320.302 L 193.400 321.800 193.520 319.017 C 193.665 315.674,193.994 315.200,196.173 315.200 C 198.663 315.200,199.226 315.983,201.779 323.000 C 202.018 323.655,202.219 323.407,202.891 321.626 C 204.881 316.351,205.596 315.413,207.731 315.277 C 210.629 315.092,210.798 315.381,210.812 320.549 C 210.834 328.463,211.468 331.725,212.818 330.881 C 213.272 330.598,213.600 330.560,213.600 330.789 C 213.600 331.007,214.050 331.298,214.600 331.436 C 215.150 331.574,215.600 331.858,215.600 332.067 C 215.600 332.276,215.781 332.335,216.003 332.198 C 216.452 331.921,215.527 330.800,214.849 330.800 C 213.122 330.800,212.400 328.249,212.400 322.142 C 212.400 315.591,212.526 315.200,214.637 315.200 C 216.280 315.200,216.400 315.564,216.401 320.533 C 216.401 325.855,217.045 327.345,219.421 327.519 C 222.096 327.716,222.577 326.830,222.711 321.459 C 222.861 315.404,222.920 315.200,224.528 315.200 C 226.638 315.200,226.800 315.635,226.800 321.305 C 226.800 327.385,226.109 330.257,224.553 330.648 C 224.029 330.779,223.600 331.030,223.600 331.206 C 223.600 331.643,225.329 331.174,225.700 330.635 C 225.904 330.339,226.125 330.391,226.394 330.800 C 226.689 331.250,226.789 331.026,226.794 329.901 C 226.799 328.604,227.167 328.011,229.521 325.501 C 235.942 318.654,235.776 319.200,231.443 319.200 C 227.855 319.200,227.600 319.052,227.600 316.981 C 227.600 315.509,228.735 315.200,234.148 315.200 C 243.020 315.200,243.501 316.410,237.372 323.300 L 233.546 327.600 237.149 327.600 C 239.131 327.600,240.864 327.780,241.000 328.000 C 241.560 328.906,241.794 328.571,243.300 324.722 C 247.416 314.201,250.460 312.430,252.960 319.103 C 253.598 320.806,254.797 323.640,255.625 325.400 C 256.453 327.160,257.364 329.172,257.650 329.871 C 258.076 330.914,258.383 331.136,259.364 331.108 C 260.021 331.089,260.627 331.282,260.712 331.537 C 260.906 332.118,272.850 332.190,273.427 331.613 C 273.904 331.136,276.061 330.943,276.675 331.323 C 277.347 331.738,278.293 331.251,278.523 330.372 C 278.797 329.325,280.408 329.346,280.684 330.400 C 280.915 331.281,287.200 331.667,287.200 330.800 C 287.200 330.580,287.740 330.400,288.400 330.400 C 289.060 330.400,289.600 330.593,289.600 330.829 C 289.600 331.065,290.074 330.885,290.654 330.429 C 291.487 329.773,292.282 329.600,294.450 329.600 C 296.210 329.600,297.935 329.318,299.268 328.811 C 300.915 328.185,301.465 328.122,301.927 328.505 C 302.399 328.897,302.623 328.819,303.104 328.095 C 303.696 327.202,305.600 326.825,305.600 327.600 C 305.600 328.275,306.756 328.044,307.600 327.200 C 308.040 326.760,308.659 326.400,308.976 326.400 C 309.293 326.400,309.664 326.220,309.800 326.000 C 309.936 325.780,310.538 325.600,311.139 325.600 C 311.770 325.600,312.815 325.100,313.615 324.416 C 314.423 323.725,315.474 323.226,316.137 323.216 C 316.930 323.205,317.338 322.958,317.484 322.400 C 317.630 321.841,318.030 321.600,318.811 321.600 C 319.562 321.600,320.260 321.206,320.939 320.400 C 321.494 319.740,322.137 319.200,322.367 319.200 C 322.904 319.200,327.755 314.358,328.674 312.905 C 329.058 312.297,330.459 310.362,331.786 308.604 C 334.523 304.981,334.832 304.500,336.027 302.000 C 336.500 301.010,337.105 299.750,337.371 299.200 C 337.637 298.650,338.153 298.224,338.518 298.254 C 338.982 298.292,339.259 297.872,339.441 296.854 C 339.584 296.054,339.980 295.081,340.321 294.691 C 340.796 294.147,340.831 293.871,340.471 293.511 C 339.721 292.761,339.924 291.033,340.883 290.003 C 341.468 289.375,341.603 289.001,341.283 288.894 C 340.704 288.701,340.627 286.400,341.200 286.400 C 341.420 286.400,341.600 286.220,341.600 286.000 C 341.600 285.780,341.330 285.600,341.000 285.600 C 340.670 285.600,340.400 285.420,340.400 285.200 C 340.400 284.980,340.605 284.800,340.856 284.800 C 342.116 284.800,342.375 283.405,342.387 276.533 C 342.401 268.876,342.318 268.400,340.957 268.400 C 339.946 268.400,339.507 266.352,340.400 265.800 C 340.923 265.477,340.915 261.384,340.388 259.597 C 339.768 257.498,339.407 250.519,339.886 249.913 C 340.109 249.631,340.405 248.651,340.545 247.735 C 340.684 246.819,340.908 245.784,341.042 245.435 C 341.197 245.032,341.070 244.800,340.694 244.800 C 339.990 244.800,339.653 240.911,339.605 232.200 C 339.588 229.120,339.419 225.925,339.230 225.101 C 339.040 224.276,339.020 222.926,339.186 222.101 C 339.670 219.692,339.475 202.820,338.959 202.486 C 338.706 202.322,338.592 201.517,338.691 200.600 C 338.891 198.757,338.873 196.933,338.575 188.500 C 338.374 182.793,338.310 182.400,337.580 182.400 C 336.675 182.400,336.434 180.215,337.300 179.864 C 337.689 179.706,337.679 179.576,337.258 179.281 C 336.915 179.041,336.618 177.649,336.451 175.504 C 336.300 173.559,335.949 171.821,335.630 171.437 C 335.209 170.929,335.186 170.654,335.537 170.303 C 336.106 169.734,336.136 168.259,335.600 167.195 C 335.380 166.758,335.020 166.042,334.800 165.605 C 334.580 165.168,334.400 163.626,334.400 162.177 C 334.400 160.343,334.214 159.356,333.786 158.929 C 333.449 158.592,333.276 157.990,333.403 157.592 C 333.529 157.193,333.426 156.740,333.174 156.584 C 332.835 156.375,332.846 156.219,333.216 155.990 C 333.947 155.538,333.363 154.400,332.400 154.400 C 331.422 154.400,330.858 153.259,331.607 152.796 C 332.184 152.439,331.269 151.200,330.429 151.200 C 329.888 151.200,329.869 150.528,330.400 150.200 C 331.112 149.760,330.839 148.335,330.000 148.116 C 329.536 147.995,329.200 147.570,329.200 147.106 C 329.200 146.666,328.668 145.699,328.017 144.958 C 327.366 144.217,326.642 142.843,326.408 141.905 C 326.174 140.967,325.806 139.930,325.590 139.600 C 325.375 139.270,325.038 138.640,324.841 138.200 C 324.645 137.760,324.016 136.964,323.442 136.430 C 322.869 135.897,322.400 135.243,322.400 134.977 C 322.400 134.711,322.064 134.406,321.654 134.298 C 321.175 134.173,320.811 133.585,320.636 132.651 C 320.436 131.583,319.576 130.379,317.385 128.099 C 315.747 126.395,314.405 124.713,314.404 124.362 C 314.399 123.559,313.147 122.400,312.283 122.400 C 311.923 122.400,311.431 122.031,311.190 121.581 C 310.376 120.060,306.845 116.808,306.254 117.035 C 305.905 117.168,305.251 116.690,304.580 115.809 C 303.652 114.593,303.304 114.401,302.385 114.603 C 301.513 114.795,301.120 114.624,300.440 113.761 C 299.972 113.165,299.477 112.789,299.341 112.926 C 299.205 113.062,298.016 111.604,296.700 109.687 C 290.806 101.099,284.676 96.748,274.400 93.859 C 270.505 92.763,132.914 92.366,128.047 93.436 M274.400 94.326 C 281.587 96.512,284.644 98.107,289.253 102.073 C 296.203 108.055,300.701 117.488,301.805 128.400 C 302.160 131.913,303.353 136.294,304.585 138.611 C 305.143 139.661,305.600 140.762,305.600 141.060 C 305.600 141.357,305.780 141.600,306.000 141.600 C 306.220 141.600,306.400 141.949,306.400 142.376 C 306.400 142.803,306.580 143.264,306.800 143.400 C 307.020 143.536,307.200 144.098,307.200 144.650 C 307.200 145.201,307.368 145.967,307.574 146.351 C 307.779 146.735,308.075 149.063,308.231 151.525 C 308.444 154.889,308.649 156.000,309.057 156.000 C 309.385 156.000,309.600 156.443,309.600 157.120 C 309.600 157.736,309.761 158.411,309.958 158.620 C 310.370 159.058,310.980 180.846,310.808 189.000 C 310.787 190.002,311.326 249.657,311.388 253.200 C 311.413 254.630,311.588 256.134,311.776 256.542 C 311.977 256.979,311.930 258.100,311.659 259.271 C 311.288 260.881,311.304 261.362,311.748 261.805 C 312.638 262.695,311.949 286.564,310.979 288.441 C 310.661 289.056,310.400 289.993,310.400 290.522 C 310.400 291.449,308.793 293.600,308.099 293.600 C 307.913 293.600,307.542 294.204,307.275 294.943 C 307.008 295.681,306.432 296.609,305.995 297.005 C 305.558 297.400,305.200 297.900,305.200 298.115 C 305.200 298.642,303.601 300.000,302.982 300.000 C 302.709 300.000,302.378 300.279,302.248 300.620 C 302.042 301.156,300.587 301.920,297.400 303.164 C 296.960 303.336,295.610 303.945,294.400 304.518 C 293.190 305.090,291.120 305.768,289.800 306.024 C 288.480 306.280,287.220 306.604,287.000 306.744 C 286.646 306.971,272.594 307.286,266.200 307.212 C 264.880 307.197,263.113 307.400,262.273 307.665 C 261.073 308.043,259.229 308.032,253.673 307.616 C 246.602 307.087,231.973 306.973,228.200 307.418 C 225.381 307.751,223.635 306.608,226.300 306.174 C 230.169 305.545,228.271 304.800,222.800 304.800 C 219.600 304.800,217.600 304.954,217.600 305.200 C 217.600 305.420,217.240 305.600,216.800 305.600 C 216.360 305.600,216.000 305.780,216.000 306.000 C 216.000 306.739,213.794 306.424,213.200 305.600 C 212.526 304.665,209.016 304.433,208.664 305.300 C 208.532 305.624,208.345 305.659,208.130 305.400 C 207.432 304.555,203.729 304.671,202.834 305.566 C 201.934 306.466,198.283 306.781,197.800 306.000 C 197.664 305.780,197.203 305.600,196.776 305.600 C 196.349 305.600,196.000 305.420,196.000 305.200 C 196.000 304.501,194.184 304.769,193.292 305.600 C 192.396 306.434,189.600 306.737,189.600 306.000 C 189.600 305.780,189.060 305.600,188.400 305.600 C 187.333 305.600,187.200 305.467,187.200 304.400 C 187.200 303.467,187.022 303.200,186.400 303.200 C 185.960 303.200,185.600 303.380,185.600 303.600 C 185.600 303.820,185.240 304.000,184.800 304.000 C 184.360 304.000,184.000 304.180,184.000 304.400 C 184.000 304.620,184.180 304.800,184.400 304.800 C 184.620 304.800,184.800 304.980,184.800 305.200 C 184.800 305.420,183.900 305.600,182.800 305.600 C 180.844 305.600,180.800 305.573,180.800 304.400 C 180.800 303.467,180.622 303.200,180.000 303.200 C 179.560 303.200,179.200 302.996,179.200 302.747 C 179.200 302.446,178.634 302.371,177.507 302.522 C 176.388 302.672,175.371 302.539,174.510 302.130 C 173.123 301.472,171.825 301.671,172.098 302.500 C 172.188 302.775,172.743 303.057,173.331 303.127 C 174.632 303.281,174.658 303.482,173.505 304.483 C 172.613 305.256,172.606 305.255,171.724 304.230 C 171.237 303.663,170.560 303.200,170.219 303.200 C 169.879 303.200,169.600 303.000,169.600 302.755 C 169.600 302.478,169.108 302.385,168.300 302.509 C 167.518 302.630,166.757 302.496,166.390 302.174 C 165.951 301.789,163.735 301.578,158.449 301.418 C 150.910 301.190,150.206 301.082,150.541 300.209 C 150.690 299.821,149.572 299.637,145.868 299.440 C 131.072 298.654,124.951 297.486,118.800 294.274 C 109.154 289.237,103.010 280.971,100.474 269.617 C 99.562 265.533,99.426 125.495,100.330 121.400 C 102.043 113.644,104.885 108.418,110.273 103.117 C 115.045 98.422,122.722 94.646,129.581 93.619 C 130.802 93.436,163.210 93.315,201.600 93.350 L 271.400 93.413 274.400 94.326 M124.200 115.953 C 120.001 118.579,119.862 119.074,119.700 132.000 C 119.614 138.773,119.712 143.223,119.954 143.580 C 120.398 144.236,123.998 141.093,134.600 130.792 C 140.650 124.913,145.378 120.385,148.632 117.352 C 149.604 116.445,150.400 115.590,150.400 115.452 C 150.400 114.724,125.400 115.203,124.200 115.953 M146.318 115.980 L 148.436 116.000 147.415 117.022 C 146.805 117.632,146.193 117.923,145.897 117.745 C 145.565 117.546,145.583 117.672,145.949 118.123 C 146.255 118.501,146.315 118.800,146.085 118.800 C 145.858 118.800,141.768 122.625,136.997 127.300 C 132.226 131.975,128.036 135.963,127.686 136.162 C 127.337 136.361,126.406 137.171,125.618 137.962 C 122.254 141.338,121.200 142.177,121.200 141.478 C 121.200 141.105,121.470 140.800,121.800 140.800 C 122.130 140.800,122.400 140.643,122.400 140.450 C 122.400 140.258,122.513 139.537,122.650 138.850 C 122.905 137.574,121.919 136.945,121.474 138.100 C 121.368 138.375,121.301 137.835,121.326 136.900 C 121.354 135.803,121.553 135.200,121.885 135.200 C 122.168 135.200,122.405 134.975,122.412 134.700 C 122.419 134.423,122.606 134.512,122.832 134.900 C 123.646 136.298,124.835 135.640,129.138 131.407 C 134.126 126.501,137.531 123.311,139.900 121.327 C 142.646 119.027,142.351 118.805,136.500 118.767 C 126.143 118.701,124.496 119.043,123.581 121.451 C 123.382 121.973,123.035 122.400,122.810 122.400 C 121.970 122.400,122.444 121.223,123.800 119.944 C 125.137 118.684,125.615 117.600,124.836 117.600 C 124.635 117.600,123.983 118.185,123.386 118.900 C 122.171 120.355,121.200 121.043,121.200 120.448 C 121.200 119.646,124.650 116.536,126.000 116.121 C 126.876 115.851,130.543 115.741,135.800 115.825 C 140.420 115.899,145.153 115.969,146.318 115.980 M138.100 117.876 C 138.485 117.976,139.115 117.976,139.500 117.876 C 139.885 117.775,139.570 117.693,138.800 117.693 C 138.030 117.693,137.715 117.775,138.100 117.876 M140.000 119.744 C 140.000 119.823,136.536 123.193,132.302 127.231 C 123.419 135.704,124.227 135.668,124.067 127.600 C 123.967 122.583,124.539 120.801,126.503 120.012 C 127.337 119.676,140.000 119.425,140.000 119.744 M193.000 122.830 C 191.240 123.006,189.080 123.339,188.200 123.569 L 186.600 123.988 188.200 123.788 C 194.540 122.999,198.999 122.756,204.200 122.918 C 208.185 123.042,209.192 123.004,207.200 122.805 C 203.301 122.415,197.031 122.426,193.000 122.830 M211.400 123.600 C 212.060 123.768,213.050 123.905,213.600 123.905 C 214.492 123.905,214.470 123.872,213.400 123.600 C 212.740 123.432,211.750 123.295,211.200 123.295 C 210.308 123.295,210.330 123.328,211.400 123.600 M177.858 126.252 C 176.790 126.580,176.005 126.938,176.114 127.047 C 176.320 127.254,180.400 126.023,180.400 125.754 C 180.400 125.519,179.970 125.603,177.858 126.252 M221.000 126.000 C 221.440 126.189,222.070 126.344,222.400 126.344 C 222.778 126.344,222.704 126.217,222.200 126.000 C 221.760 125.811,221.130 125.656,220.800 125.656 C 220.422 125.656,220.496 125.783,221.000 126.000 M122.683 128.495 C 122.587 128.993,122.505 128.680,122.501 127.800 C 122.496 126.920,122.575 126.513,122.675 126.895 C 122.775 127.278,122.779 127.998,122.683 128.495 M224.758 127.237 C 225.725 127.666,226.588 127.945,226.675 127.858 C 226.848 127.686,223.765 126.382,223.292 126.428 C 223.131 126.444,223.791 126.808,224.758 127.237 M169.415 129.826 C 168.323 130.367,167.243 131.007,167.015 131.247 C 166.660 131.622,171.503 129.377,171.967 128.953 C 172.437 128.522,171.174 128.954,169.415 129.826 M231.100 130.109 L 233.600 131.371 233.600 133.666 C 233.600 136.533,235.321 144.812,235.815 144.319 C 235.892 144.241,235.591 142.833,235.145 141.189 C 234.700 139.545,234.234 136.615,234.111 134.677 L 233.886 131.154 231.555 129.977 C 230.272 129.330,229.083 128.811,228.911 128.824 C 228.740 128.837,229.725 129.416,231.100 130.109 M163.351 133.316 C 157.790 136.801,152.862 140.797,148.508 145.351 C 145.035 148.985,141.263 153.698,139.828 156.200 C 139.034 157.583,138.930 157.713,142.527 152.821 C 147.808 145.637,156.461 137.740,163.700 133.497 C 164.745 132.885,165.600 132.297,165.600 132.192 C 165.600 131.909,165.575 131.922,163.351 133.316 M127.592 134.405 C 126.795 134.898,127.389 135.358,128.221 134.892 C 128.596 134.682,128.736 134.408,128.532 134.282 C 128.329 134.156,127.906 134.211,127.592 134.405 M237.645 148.800 C 237.653 149.130,238.006 150.120,238.429 151.000 C 238.852 151.880,239.086 152.162,238.949 151.626 C 238.573 150.161,237.629 148.114,237.645 148.800 M198.300 151.897 C 199.895 151.973,202.505 151.973,204.100 151.897 C 205.695 151.821,204.390 151.759,201.200 151.759 C 198.010 151.759,196.705 151.821,198.300 151.897 M193.105 152.283 C 193.602 152.379,194.322 152.375,194.705 152.275 C 195.087 152.175,194.680 152.096,193.800 152.101 C 192.920 152.105,192.607 152.187,193.105 152.283 M207.233 152.146 C 207.325 152.226,208.390 152.394,209.600 152.519 C 211.020 152.666,211.446 152.629,210.800 152.413 C 209.809 152.083,206.913 151.865,207.233 152.146 M184.133 154.722 C 183.216 155.095,182.316 155.550,182.133 155.733 C 181.950 155.917,182.790 155.677,184.000 155.200 C 185.210 154.723,186.275 154.258,186.367 154.167 C 186.707 153.827,185.751 154.065,184.133 154.722 M216.000 154.102 C 216.330 154.434,222.000 156.737,222.000 156.539 C 222.000 156.438,221.055 155.940,219.900 155.432 C 217.667 154.450,215.668 153.768,216.000 154.102 M240.087 156.600 C 240.091 157.040,240.232 157.940,240.400 158.600 C 240.674 159.678,240.706 159.698,240.713 158.800 C 240.717 158.250,240.576 157.350,240.400 156.800 C 240.149 156.016,240.081 155.973,240.087 156.600 M176.634 158.803 C 172.078 161.778,161.691 172.400,163.339 172.400 C 163.444 172.400,164.348 171.253,165.348 169.852 C 167.732 166.511,173.426 161.214,177.085 158.934 C 179.674 157.320,180.349 156.800,179.851 156.800 C 179.770 156.800,178.322 157.701,176.634 158.803 M225.816 159.165 C 229.957 161.875,235.157 166.437,237.596 169.500 C 239.860 172.344,240.884 172.203,240.743 169.067 C 240.690 167.889,240.669 167.910,240.443 169.369 C 240.102 171.573,239.540 171.534,237.755 169.183 C 235.079 165.659,224.182 156.800,222.522 156.800 C 222.346 156.800,223.828 157.864,225.816 159.165 M135.947 162.900 C 134.063 166.649,131.571 173.145,131.621 174.175 C 131.632 174.409,132.322 172.710,133.154 170.400 C 133.986 168.090,135.508 164.535,136.537 162.500 C 137.566 160.465,138.318 158.800,138.208 158.800 C 138.097 158.800,137.080 160.645,135.947 162.900 M240.937 163.800 C 240.939 165.560,241.009 166.230,241.093 165.289 C 241.178 164.349,241.177 162.909,241.091 162.089 C 241.005 161.270,240.936 162.040,240.937 163.800 M161.379 175.641 C 160.592 177.204,160.014 178.547,160.094 178.627 C 160.173 178.707,160.903 177.428,161.716 175.786 C 162.529 174.144,163.107 172.800,163.002 172.800 C 162.896 172.800,162.166 174.078,161.379 175.641 M130.800 176.400 C 130.551 177.324,130.426 178.159,130.521 178.255 C 130.617 178.350,130.890 177.663,131.127 176.727 C 131.365 175.791,131.490 174.957,131.406 174.873 C 131.322 174.788,131.049 175.476,130.800 176.400 M129.840 180.440 C 129.693 181.357,129.652 182.185,129.747 182.280 C 129.842 182.376,130.046 181.710,130.200 180.800 C 130.354 179.890,130.396 179.062,130.293 178.960 C 130.190 178.857,129.987 179.523,129.840 180.440 M263.762 183.622 C 258.044 188.615,254.784 191.673,257.642 189.365 C 258.435 188.724,261.379 186.175,264.183 183.700 C 269.355 179.137,270.178 178.645,270.548 179.900 C 270.710 180.449,270.736 180.429,270.672 179.805 C 270.503 178.157,269.187 178.884,263.762 183.622 M158.271 183.694 C 157.902 185.163,157.616 186.597,157.636 186.882 C 157.656 187.167,158.012 186.140,158.426 184.600 C 158.841 183.060,159.127 181.625,159.061 181.412 C 158.995 181.199,158.640 182.226,158.271 183.694 M206.300 181.482 C 206.795 181.578,207.605 181.578,208.100 181.482 C 208.595 181.387,208.190 181.309,207.200 181.309 C 206.210 181.309,205.805 181.387,206.300 181.482 M177.800 182.378 C 175.729 183.358,176.056 183.365,178.800 182.400 C 180.010 181.974,180.640 181.625,180.200 181.624 C 179.760 181.622,178.680 181.962,177.800 182.378 M186.106 182.035 C 187.824 182.440,190.623 183.790,190.996 184.394 C 191.480 185.177,191.951 184.787,192.075 183.500 L 192.200 182.200 195.986 182.084 C 199.441 181.978,199.828 182.041,200.408 182.810 L 201.043 183.652 203.021 182.606 C 204.110 182.030,204.550 181.677,204.000 181.821 C 203.450 181.965,202.578 182.350,202.062 182.676 C 201.202 183.219,201.075 183.199,200.539 182.434 C 200.014 181.685,199.555 181.600,196.020 181.600 C 191.848 181.600,191.600 181.718,191.600 183.695 C 191.600 184.462,191.547 184.476,190.893 183.884 C 189.828 182.921,186.733 181.613,185.600 181.649 C 184.858 181.672,184.989 181.772,186.106 182.035 M211.755 182.401 C 212.831 182.821,214.180 183.578,214.753 184.082 L 215.794 185.000 214.997 184.044 C 214.165 183.045,211.435 181.610,210.400 181.627 C 210.070 181.633,210.680 181.981,211.755 182.401 M220.500 182.196 C 219.785 182.507,219.200 182.851,219.200 182.960 C 219.200 183.070,219.785 182.922,220.500 182.632 C 221.215 182.341,222.070 182.005,222.400 181.884 C 222.933 181.688,222.933 181.661,222.400 181.647 C 222.070 181.638,221.215 181.886,220.500 182.196 M228.000 182.000 C 229.368 182.438,230.419 182.438,229.400 182.000 C 228.960 181.811,228.240 181.662,227.800 181.668 C 227.157 181.677,227.196 181.743,228.000 182.000 M129.029 185.229 C 128.876 186.579,128.833 187.766,128.933 187.867 C 129.034 187.967,129.244 186.947,129.400 185.600 C 129.556 184.253,129.599 183.066,129.495 182.962 C 129.391 182.858,129.181 183.878,129.029 185.229 M174.137 184.506 C 165.442 191.272,166.886 206.142,176.727 211.163 C 179.233 212.441,179.290 212.145,176.802 210.774 C 167.432 205.610,165.954 192.296,173.959 185.161 C 176.482 182.913,176.562 182.620,174.137 184.506 M217.612 184.188 C 217.101 184.731,216.530 185.080,216.342 184.964 C 216.154 184.848,216.000 184.943,216.000 185.176 C 216.000 185.906,216.608 185.644,217.800 184.400 C 218.432 183.740,218.857 183.200,218.745 183.200 C 218.632 183.200,218.122 183.644,217.612 184.188 M233.469 184.842 C 234.371 185.855,235.236 187.083,235.391 187.572 C 235.546 188.061,235.760 188.373,235.866 188.267 C 236.233 187.900,234.862 185.794,233.348 184.400 L 231.828 183.000 233.469 184.842 M272.101 188.200 C 272.105 189.080,272.187 189.393,272.283 188.895 C 272.379 188.398,272.375 187.678,272.275 187.295 C 272.175 186.913,272.096 187.320,272.101 188.200 M308.800 189.600 C 308.800 190.260,308.980 190.800,309.200 190.800 C 309.420 190.800,309.600 190.260,309.600 189.600 C 309.600 188.940,309.420 188.400,309.200 188.400 C 308.980 188.400,308.800 188.940,308.800 189.600 M128.558 195.000 C 128.558 198.080,128.621 199.287,128.697 197.682 C 128.773 196.078,128.773 193.558,128.696 192.082 C 128.619 190.607,128.557 191.920,128.558 195.000 M220.948 190.176 C 220.259 190.476,219.586 190.898,219.452 191.115 C 219.318 191.332,219.882 191.166,220.704 190.746 C 221.642 190.267,222.648 190.060,223.400 190.190 C 224.354 190.355,224.436 190.322,223.800 190.027 C 222.719 189.526,222.404 189.543,220.948 190.176 M201.782 190.982 C 201.242 191.522,200.807 192.197,200.816 192.482 C 200.825 192.767,201.099 192.507,201.426 191.905 C 202.025 190.801,202.640 190.535,205.200 190.272 C 206.325 190.156,206.224 190.115,204.682 190.064 C 203.128 190.012,202.577 190.186,201.782 190.982 M272.559 195.600 C 272.559 198.790,272.621 200.095,272.697 198.500 C 272.773 196.905,272.773 194.295,272.697 192.700 C 272.621 191.105,272.559 192.410,272.559 195.600 M156.953 195.000 C 156.953 197.640,157.018 198.668,157.097 197.284 C 157.175 195.901,157.174 193.741,157.095 192.484 C 157.016 191.228,156.952 192.360,156.953 195.000 M182.000 190.818 C 181.562 191.115,181.724 191.152,182.600 190.956 C 184.071 190.627,184.390 190.398,183.367 190.406 C 182.945 190.409,182.330 190.595,182.000 190.818 M187.000 190.681 C 187.440 190.785,188.520 191.407,189.400 192.064 L 191.000 193.258 189.433 191.829 C 188.572 191.043,187.492 190.421,187.033 190.446 C 186.229 190.491,186.228 190.499,187.000 190.681 M207.563 191.282 C 207.873 191.678,208.257 192.677,208.417 193.501 C 208.707 194.993,208.708 194.994,208.754 193.722 C 208.784 192.896,208.482 192.112,207.900 191.503 C 207.405 190.985,207.253 190.885,207.563 191.282 M252.777 193.311 C 250.247 195.712,250.732 195.384,254.301 192.280 C 255.237 191.466,255.867 190.805,255.701 190.811 C 255.536 190.817,254.220 191.942,252.777 193.311 M179.836 192.431 C 179.266 193.108,178.805 193.873,178.812 194.131 C 178.819 194.389,179.023 194.240,179.267 193.800 C 179.510 193.360,180.076 192.595,180.524 192.100 C 180.973 191.605,181.234 191.200,181.105 191.200 C 180.976 191.200,180.405 191.754,179.836 192.431 M236.954 196.000 C 236.954 198.750,237.018 199.875,237.096 198.500 C 237.174 197.125,237.174 194.875,237.096 193.500 C 237.018 192.125,236.954 193.250,236.954 196.000 M226.562 192.533 C 226.693 192.936,226.800 196.586,226.800 200.645 C 226.800 208.905,227.046 209.613,229.135 207.367 C 230.186 206.237,230.187 206.234,229.174 207.111 C 227.262 208.768,227.200 208.561,227.194 200.500 C 227.190 195.781,227.028 192.778,226.756 192.400 C 226.397 191.901,226.365 191.923,226.562 192.533 M200.492 202.457 C 200.386 213.360,200.843 212.400,195.757 212.400 C 192.523 212.400,192.364 212.358,192.000 211.400 C 191.561 210.244,191.359 210.208,190.000 211.042 C 189.095 211.597,189.491 211.569,190.951 210.976 C 191.305 210.832,191.593 211.117,191.758 211.776 C 192.011 212.783,192.078 212.800,195.731 212.800 C 201.193 212.800,200.837 213.546,200.700 202.400 L 200.585 193.000 200.492 202.457 M191.400 197.000 C 191.400 198.388,191.532 199.316,191.694 199.062 C 191.856 198.808,191.988 197.880,191.988 197.000 C 191.988 196.120,191.856 195.192,191.694 194.938 C 191.532 194.684,191.400 195.612,191.400 197.000 M178.463 196.920 C 178.407 198.972,179.172 201.600,179.824 201.600 C 179.936 201.600,179.800 201.195,179.522 200.700 C 179.243 200.205,178.905 198.630,178.770 197.200 L 178.526 194.600 178.463 196.920 M247.781 197.700 L 246.200 199.400 247.900 197.819 C 249.481 196.348,249.784 196.000,249.481 196.000 C 249.416 196.000,248.651 196.765,247.781 197.700 M244.181 200.900 L 242.600 202.600 244.300 201.019 C 245.881 199.548,246.184 199.200,245.881 199.200 C 245.816 199.200,245.051 199.965,244.181 200.900 M189.294 202.012 C 188.575 202.665,188.137 203.200,188.319 203.200 C 188.501 203.200,189.168 202.660,189.800 202.000 C 191.270 200.465,190.986 200.472,189.294 202.012 M233.737 203.089 C 230.953 205.339,230.400 205.856,230.400 206.208 C 230.400 206.355,231.345 205.620,232.500 204.577 C 233.655 203.534,235.140 202.348,235.800 201.942 C 236.460 201.535,236.792 201.202,236.537 201.201 C 236.282 201.201,235.022 202.050,233.737 203.089 M128.997 204.403 C 129.148 205.835,129.523 208.085,129.829 209.403 C 130.397 211.849,130.360 211.316,129.547 205.400 C 129.013 201.510,128.614 200.787,128.997 204.403 M272.109 203.600 C 272.109 204.590,272.187 204.995,272.282 204.500 C 272.378 204.005,272.378 203.195,272.282 202.700 C 272.187 202.205,272.109 202.610,272.109 203.600 M157.625 202.907 C 157.591 203.870,159.146 209.599,159.652 210.375 C 159.982 210.879,160.009 210.845,159.797 210.200 C 159.652 209.760,159.110 207.780,158.592 205.800 C 158.074 203.820,157.639 202.518,157.625 202.907 M180.800 202.641 C 180.800 203.559,185.976 204.384,187.134 203.649 C 187.447 203.451,186.865 203.388,185.722 203.498 C 184.477 203.617,183.241 203.461,182.289 203.063 C 181.470 202.721,180.800 202.531,180.800 202.641 M238.387 205.917 C 231.037 212.631,229.360 214.195,230.177 213.575 C 231.475 212.591,242.400 202.750,242.400 202.566 C 242.400 202.265,242.231 202.406,238.387 205.917 M270.622 211.422 C 270.472 212.225,270.428 212.962,270.526 213.060 C 270.624 213.157,270.827 212.581,270.978 211.778 C 271.128 210.975,271.172 210.238,271.074 210.140 C 270.976 210.043,270.773 210.619,270.622 211.422 M160.020 211.308 C 159.977 211.961,163.606 218.661,164.620 219.800 L 165.689 221.000 164.696 219.595 C 164.150 218.822,162.880 216.572,161.872 214.595 C 160.865 212.618,160.031 211.139,160.020 211.308 M208.800 211.877 C 208.800 212.594,209.873 212.800,213.600 212.800 C 217.327 212.800,218.400 212.594,218.400 211.877 C 218.400 211.585,218.241 211.599,217.920 211.920 C 217.613 212.227,216.053 212.400,213.600 212.400 C 211.147 212.400,209.587 212.227,209.280 211.920 C 208.959 211.599,208.800 211.585,208.800 211.877 M130.456 212.400 C 130.456 212.730,130.611 213.360,130.800 213.800 C 131.017 214.304,131.144 214.378,131.144 214.000 C 131.144 213.670,130.989 213.040,130.800 212.600 C 130.583 212.096,130.456 212.022,130.456 212.400 M180.000 212.400 C 180.550 212.576,181.450 212.717,182.000 212.713 C 182.898 212.706,182.878 212.674,181.800 212.400 C 180.108 211.969,178.656 211.969,180.000 212.400 M185.600 212.400 C 184.796 212.657,184.757 212.723,185.400 212.732 C 185.840 212.738,186.560 212.589,187.000 212.400 C 188.019 211.962,186.968 211.962,185.600 212.400 M269.305 216.905 C 268.838 218.491,268.522 219.856,268.604 219.937 C 268.685 220.018,269.143 218.796,269.621 217.221 C 270.099 215.646,270.415 214.282,270.323 214.189 C 270.230 214.097,269.772 215.319,269.305 216.905 M224.514 218.155 C 222.267 220.160,220.107 222.148,219.714 222.573 C 219.321 222.998,220.530 222.026,222.400 220.413 C 227.521 215.995,228.885 214.749,228.736 214.624 C 228.661 214.562,226.761 216.151,224.514 218.155 M131.429 215.600 C 131.576 216.150,131.864 216.870,132.067 217.200 C 132.325 217.617,132.357 217.495,132.171 216.800 C 132.024 216.250,131.736 215.530,131.533 215.200 C 131.275 214.783,131.243 214.905,131.429 215.600 M133.004 220.171 C 135.142 230.313,152.327 251.754,162.000 256.348 L 163.000 256.823 162.010 256.112 C 147.983 246.025,139.779 236.007,133.913 221.800 C 133.278 220.260,132.868 219.527,133.004 220.171 M167.800 224.000 C 168.659 224.880,169.452 225.600,169.562 225.600 C 169.672 225.600,169.059 224.880,168.200 224.000 C 167.341 223.120,166.548 222.400,166.438 222.400 C 166.328 222.400,166.941 223.120,167.800 224.000 M340.000 223.200 C 340.000 223.644,340.267 224.000,340.600 224.000 C 341.273 224.000,341.300 223.927,340.957 223.033 C 340.614 222.139,340.000 222.246,340.000 223.200 M216.981 224.900 L 215.400 226.600 217.100 225.019 C 218.035 224.149,218.800 223.384,218.800 223.319 C 218.800 223.016,218.452 223.319,216.981 224.900 M170.434 226.700 C 170.452 226.865,171.217 227.622,172.134 228.382 L 173.800 229.763 172.219 228.082 C 170.593 226.352,170.376 226.184,170.434 226.700 M211.949 229.127 C 210.271 230.597,206.983 233.465,204.642 235.500 C 202.302 237.535,200.525 239.199,200.693 239.197 C 200.989 239.195,212.375 229.371,214.391 227.379 C 216.208 225.584,215.035 226.423,211.949 229.127 M264.892 228.092 C 264.399 228.993,264.055 229.788,264.127 229.860 C 264.199 229.932,264.668 229.261,265.169 228.369 C 265.671 227.477,266.015 226.682,265.935 226.601 C 265.855 226.521,265.385 227.192,264.892 228.092 M174.000 229.750 C 174.000 229.986,177.610 232.567,178.827 233.201 C 179.362 233.480,179.710 233.610,179.600 233.489 C 179.202 233.053,174.000 229.580,174.000 229.750 M262.954 231.700 C 262.587 232.415,261.760 233.810,261.115 234.800 C 260.116 236.335,260.092 236.426,260.954 235.415 C 262.040 234.143,264.190 230.400,263.835 230.400 C 263.717 230.400,263.321 230.985,262.954 231.700 M180.000 233.765 C 180.000 233.967,184.368 236.008,184.748 235.984 C 185.082 235.963,182.998 234.842,181.328 234.144 C 180.598 233.839,180.000 233.668,180.000 233.765 M120.284 235.500 C 119.672 236.624,120.246 270.292,120.899 271.600 C 121.850 273.502,123.127 274.924,124.800 275.944 C 126.342 276.883,158.400 277.332,158.400 276.414 C 158.400 276.202,155.922 273.367,152.893 270.114 C 149.864 266.861,144.960 261.500,141.996 258.200 C 139.032 254.900,136.329 251.930,135.990 251.600 C 135.652 251.270,132.164 247.445,128.239 243.100 C 121.415 235.543,120.655 234.818,120.284 235.500 M258.813 238.068 C 258.297 238.765,256.881 240.520,255.666 241.968 C 254.451 243.416,253.873 244.240,254.382 243.800 C 255.253 243.048,259.096 238.393,259.749 237.300 C 260.326 236.333,259.740 236.814,258.813 238.068 M190.600 237.990 C 191.364 238.328,193.914 238.557,193.567 238.256 C 193.475 238.176,192.590 238.004,191.600 237.873 C 190.398 237.714,190.066 237.753,190.600 237.990 M196.705 239.083 C 197.202 239.179,197.922 239.175,198.305 239.075 C 198.687 238.975,198.280 238.896,197.400 238.901 C 196.520 238.905,196.207 238.987,196.705 239.083 M134.178 250.800 C 135.453 252.230,137.922 254.959,139.664 256.865 C 141.405 258.771,143.170 260.763,143.586 261.291 C 144.001 261.819,145.610 263.590,147.161 265.226 C 150.153 268.381,150.445 268.841,149.255 268.530 C 148.740 268.396,148.442 268.595,148.291 269.175 C 148.101 269.902,147.942 269.956,147.114 269.579 C 145.267 268.738,144.660 266.448,146.434 267.011 C 147.447 267.332,147.421 266.546,146.400 266.000 C 145.960 265.765,145.600 265.218,145.600 264.786 C 145.600 264.289,145.329 264.000,144.862 264.000 C 144.195 264.000,142.323 262.410,142.800 262.248 C 143.069 262.157,141.537 260.246,140.868 259.838 C 140.520 259.625,140.120 259.822,139.711 260.405 C 139.140 261.221,139.053 261.239,138.702 260.610 C 138.446 260.153,138.465 259.775,138.759 259.481 C 139.001 259.239,139.194 258.851,139.187 258.620 C 139.180 258.389,138.945 258.502,138.664 258.871 C 138.296 259.356,137.994 259.431,137.577 259.141 C 137.133 258.832,137.117 258.692,137.505 258.535 C 138.331 258.200,138.941 256.800,138.261 256.800 C 137.949 256.800,137.599 257.160,137.484 257.600 C 137.369 258.040,137.066 258.400,136.810 258.400 C 136.523 258.400,136.446 258.085,136.609 257.571 C 136.779 257.036,136.612 256.445,136.136 255.903 C 135.731 255.441,135.613 255.186,135.872 255.338 C 136.132 255.489,136.458 255.430,136.596 255.207 C 136.924 254.676,136.159 254.687,135.148 255.228 C 134.324 255.669,131.489 253.078,127.600 248.331 C 126.830 247.391,125.870 246.287,125.467 245.878 C 125.063 245.468,124.848 245.019,124.988 244.878 C 125.129 244.738,125.385 244.851,125.557 245.131 C 125.990 245.831,126.978 244.640,126.657 243.805 C 126.357 243.024,125.600 243.020,125.600 243.800 C 125.600 244.130,125.420 244.400,125.200 244.400 C 124.630 244.400,124.703 243.299,125.285 243.105 C 125.616 242.995,125.488 242.584,124.885 241.818 C 121.663 237.721,127.817 243.670,134.178 250.800 M252.074 245.882 C 251.564 246.431,251.217 246.950,251.303 247.036 C 251.388 247.122,251.974 246.654,252.604 245.996 C 253.234 245.338,253.581 244.819,253.375 244.842 C 253.169 244.865,252.583 245.334,252.074 245.882 M127.360 249.500 C 129.175 251.661,132.944 255.875,138.000 261.397 C 139.210 262.719,141.820 265.473,143.800 267.517 C 148.900 272.783,149.348 272.400,138.089 272.400 C 127.650 272.400,126.325 272.189,125.388 270.376 C 124.743 269.130,124.484 247.200,125.114 247.200 C 125.286 247.200,126.297 248.235,127.360 249.500 M248.981 248.900 L 247.400 250.600 249.100 249.019 C 250.681 247.548,250.984 247.200,250.681 247.200 C 250.616 247.200,249.851 247.965,248.981 248.900 M277.654 249.622 C 275.537 251.707,275.160 252.737,276.200 253.600 C 276.693 254.010,276.800 255.402,276.800 261.441 C 276.800 269.904,276.406 271.641,274.322 272.367 C 272.929 272.853,261.106 272.475,261.288 271.951 C 261.349 271.773,263.705 269.295,266.522 266.445 L 271.644 261.263 271.522 259.132 C 271.447 257.829,271.216 257.000,270.928 257.000 C 269.958 257.000,258.123 269.119,258.476 269.750 C 258.670 270.096,258.640 270.452,258.405 270.597 C 258.182 270.735,258.000 270.657,258.000 270.424 C 258.000 269.529,257.181 270.098,254.538 272.828 C 250.403 277.100,249.750 276.800,263.187 276.800 C 281.005 276.800,280.800 277.010,280.800 258.750 C 280.800 246.052,280.922 246.406,277.654 249.622 M245.775 251.700 L 244.600 253.000 245.900 251.825 C 246.615 251.179,247.200 250.594,247.200 250.525 C 247.200 250.216,246.870 250.488,245.775 251.700 M123.497 260.082 C 123.421 261.687,123.358 260.480,123.358 257.400 C 123.357 254.320,123.419 253.007,123.496 254.482 C 123.573 255.958,123.573 258.478,123.497 260.082 M239.100 256.629 C 237.605 257.440,237.696 257.778,239.200 257.000 C 239.860 256.659,240.400 256.294,240.400 256.190 C 240.400 255.932,240.357 255.947,239.100 256.629 M121.482 260.100 C 121.387 260.595,121.309 260.190,121.309 259.200 C 121.309 258.210,121.387 257.805,121.482 258.300 C 121.578 258.795,121.578 259.605,121.482 260.100 M164.400 257.765 C 164.400 258.007,167.784 259.938,169.058 260.422 C 169.677 260.657,170.097 260.764,169.992 260.660 C 169.648 260.318,164.400 257.602,164.400 257.765 M227.000 262.672 C 224.443 263.741,223.550 264.298,225.200 263.794 C 226.606 263.366,230.284 261.665,229.800 261.668 C 229.580 261.669,228.320 262.121,227.000 262.672 M174.600 262.955 C 175.260 263.255,176.250 263.611,176.800 263.746 C 177.603 263.943,177.564 263.884,176.600 263.445 C 175.940 263.145,174.950 262.789,174.400 262.654 C 173.597 262.457,173.636 262.516,174.600 262.955 M121.476 265.100 C 121.375 265.485,121.293 265.170,121.293 264.400 C 121.293 263.630,121.375 263.315,121.476 263.700 C 121.576 264.085,121.576 264.715,121.476 265.100 M124.213 269.800 C 125.068 271.556,125.735 272.309,127.038 272.989 L 128.200 273.595 126.900 273.598 C 126.185 273.599,125.600 273.761,125.600 273.957 C 125.600 274.154,125.330 274.418,125.000 274.545 C 124.213 274.846,124.242 274.615,125.096 273.761 C 125.604 273.253,125.657 273.019,125.290 272.897 C 124.246 272.549,123.197 269.337,123.274 266.722 L 123.348 264.200 123.488 266.400 C 123.565 267.610,123.891 269.140,124.213 269.800 M181.620 265.379 C 182.401 265.667,183.841 266.010,184.820 266.142 C 186.140 266.320,185.877 266.183,183.800 265.612 C 180.579 264.728,179.554 264.618,181.620 265.379 M216.800 266.000 C 216.008 266.254,215.967 266.320,216.600 266.320 C 217.040 266.320,217.850 266.176,218.400 266.000 C 219.192 265.746,219.233 265.680,218.600 265.680 C 218.160 265.680,217.350 265.824,216.800 266.000 M187.800 266.800 C 188.460 266.968,189.540 267.106,190.200 267.107 C 191.209 267.108,191.145 267.055,189.800 266.777 C 187.774 266.358,186.137 266.377,187.800 266.800 M212.200 266.800 C 210.537 267.223,212.174 267.242,214.200 266.823 C 215.545 266.545,215.609 266.492,214.600 266.493 C 213.940 266.494,212.860 266.632,212.200 266.800 M193.305 267.487 C 193.914 267.579,194.814 267.577,195.305 267.482 C 195.797 267.387,195.300 267.311,194.200 267.314 C 193.100 267.317,192.697 267.395,193.305 267.487 M207.305 267.487 C 207.914 267.579,208.814 267.577,209.305 267.482 C 209.797 267.387,209.300 267.311,208.200 267.314 C 207.100 267.317,206.697 267.395,207.305 267.487 M198.716 267.897 C 200.099 267.975,202.259 267.974,203.516 267.895 C 204.772 267.816,203.640 267.752,201.000 267.753 C 198.360 267.753,197.332 267.818,198.716 267.897 M151.057 269.800 C 151.578 270.320,151.579 270.400,151.071 270.400 C 150.749 270.400,150.382 270.130,150.255 269.800 C 150.129 269.470,150.122 269.200,150.241 269.200 C 150.360 269.200,150.727 269.470,151.057 269.800 M123.066 272.352 C 123.189 273.162,123.138 273.196,122.602 272.659 C 121.891 271.948,121.802 271.067,122.463 271.288 C 122.718 271.373,122.989 271.852,123.066 272.352 M184.400 319.665 C 181.511 320.651,180.844 324.956,183.265 326.993 C 185.975 329.274,189.200 327.518,189.200 323.761 C 189.200 322.635,188.280 320.000,187.887 320.000 C 187.836 320.000,187.256 319.848,186.597 319.662 C 185.939 319.475,184.950 319.477,184.400 319.665 M248.864 323.019 C 248.235 324.399,248.236 324.400,249.610 324.400 L 250.821 324.400 250.200 323.200 C 249.449 321.747,249.444 321.746,248.864 323.019 M198.028 328.329 C 198.003 331.293,198.077 331.644,198.700 331.525 C 199.511 331.371,199.872 329.712,199.234 329.074 C 198.995 328.835,198.787 328.181,198.772 327.620 C 198.691 324.693,198.054 325.301,198.028 328.329 M192.787 327.845 C 192.547 328.480,192.106 329.495,191.806 330.100 C 191.506 330.705,191.428 331.200,191.631 331.200 C 191.834 331.200,192.006 330.975,192.013 330.700 C 192.020 330.395,192.232 330.472,192.557 330.900 C 193.024 331.515,193.117 331.322,193.324 329.313 C 193.595 326.687,193.412 326.186,192.787 327.845 M205.467 327.067 C 205.057 327.477,205.151 329.122,205.600 329.400 C 205.838 329.547,206.000 329.071,206.000 328.224 C 206.000 326.762,205.928 326.605,205.467 327.067 M177.842 328.635 C 177.520 329.474,177.535 329.600,177.957 329.600 C 178.457 329.600,178.838 328.471,178.424 328.215 C 178.237 328.099,177.975 328.288,177.842 328.635 M247.500 329.482 C 247.995 329.578,248.805 329.578,249.300 329.482 C 249.795 329.387,249.390 329.309,248.400 329.309 C 247.410 329.309,247.005 329.387,247.500 329.482 M250.400 329.353 C 250.400 329.438,250.850 329.593,251.400 329.698 C 251.950 329.803,252.400 329.734,252.400 329.545 C 252.400 329.355,251.950 329.200,251.400 329.200 C 250.850 329.200,250.400 329.269,250.400 329.353 " stroke="none" fill="#446754" fill-rule="evenodd"></path></g></svg>